<mxfile host="app.diagrams.net" modified="2021-02-03T21:23:39.483Z" agent="5.0 (X11)" etag="i943xRUK_9L1R7KNjRUV" version="14.2.7" type="github" pages="5">
  <diagram id="288VJMtTFoMtPkR4BBRp" name="Data structure">
    <mxGraphModel dx="1185" dy="1848" grid="1" gridSize="10" guides="1" tooltips="1" connect="1" arrows="1" fold="1" page="1" pageScale="1" pageWidth="850" pageHeight="1100" math="0" shadow="0">
      <root>
        <mxCell id="0" />
        <mxCell id="1" parent="0" />
        <mxCell id="ENczCvl2RCd71qkHRR7Z-1" value="Game Data" style="swimlane;fontStyle=0;align=center;verticalAlign=top;childLayout=stackLayout;horizontal=1;startSize=55;horizontalStack=0;resizeParent=1;resizeParentMax=0;resizeLast=0;collapsible=0;marginBottom=0;html=1;" parent="1" vertex="1">
          <mxGeometry y="-1000" width="140" height="198" as="geometry" />
        </mxCell>
        <mxCell id="ENczCvl2RCd71qkHRR7Z-2" value="&lt;div&gt;game scene&lt;/div&gt;" style="text;html=1;strokeColor=none;fillColor=none;align=center;verticalAlign=middle;spacingLeft=4;spacingRight=4;overflow=hidden;rotatable=0;points=[[0,0.5],[1,0.5]];portConstraint=eastwest;" parent="ENczCvl2RCd71qkHRR7Z-1" vertex="1">
          <mxGeometry y="55" width="140" height="25" as="geometry" />
        </mxCell>
        <mxCell id="ENczCvl2RCd71qkHRR7Z-3" value="Game Stats" style="text;html=1;strokeColor=none;fillColor=none;align=center;verticalAlign=middle;spacingLeft=4;spacingRight=4;overflow=hidden;rotatable=0;points=[[0,0.5],[1,0.5]];portConstraint=eastwest;" parent="ENczCvl2RCd71qkHRR7Z-1" vertex="1">
          <mxGeometry y="80" width="140" height="25" as="geometry" />
        </mxCell>
        <mxCell id="ENczCvl2RCd71qkHRR7Z-4" value="game settings" style="text;html=1;strokeColor=none;fillColor=none;align=center;verticalAlign=middle;spacingLeft=4;spacingRight=4;overflow=hidden;rotatable=0;points=[[0,0.5],[1,0.5]];portConstraint=eastwest;" parent="ENczCvl2RCd71qkHRR7Z-1" vertex="1">
          <mxGeometry y="105" width="140" height="25" as="geometry" />
        </mxCell>
        <mxCell id="ENczCvl2RCd71qkHRR7Z-5" value="" style="line;strokeWidth=1;fillColor=none;align=left;verticalAlign=middle;spacingTop=-1;spacingLeft=3;spacingRight=3;rotatable=0;labelPosition=right;points=[];portConstraint=eastwest;" parent="ENczCvl2RCd71qkHRR7Z-1" vertex="1">
          <mxGeometry y="130" width="140" height="8" as="geometry" />
        </mxCell>
        <mxCell id="ENczCvl2RCd71qkHRR7Z-6" value="GUI entity list" style="text;html=1;strokeColor=none;fillColor=none;align=center;verticalAlign=middle;spacingLeft=4;spacingRight=4;overflow=hidden;rotatable=0;points=[[0,0.5],[1,0.5]];portConstraint=eastwest;" parent="ENczCvl2RCd71qkHRR7Z-1" vertex="1">
          <mxGeometry y="138" width="140" height="20" as="geometry" />
        </mxCell>
        <mxCell id="ENczCvl2RCd71qkHRR7Z-7" value="Player entity list" style="text;html=1;strokeColor=none;fillColor=none;align=center;verticalAlign=middle;spacingLeft=4;spacingRight=4;overflow=hidden;rotatable=0;points=[[0,0.5],[1,0.5]];portConstraint=eastwest;" parent="ENczCvl2RCd71qkHRR7Z-1" vertex="1">
          <mxGeometry y="158" width="140" height="20" as="geometry" />
        </mxCell>
        <mxCell id="ENczCvl2RCd71qkHRR7Z-8" value="Global entity list" style="text;html=1;strokeColor=none;fillColor=none;align=center;verticalAlign=middle;spacingLeft=4;spacingRight=4;overflow=hidden;rotatable=0;points=[[0,0.5],[1,0.5]];portConstraint=eastwest;" parent="ENczCvl2RCd71qkHRR7Z-1" vertex="1">
          <mxGeometry y="178" width="140" height="20" as="geometry" />
        </mxCell>
        <mxCell id="ENczCvl2RCd71qkHRR7Z-9" value="Game Stats" style="swimlane;fontStyle=0;align=center;verticalAlign=top;childLayout=stackLayout;horizontal=1;startSize=55;horizontalStack=0;resizeParent=1;resizeParentMax=0;resizeLast=0;collapsible=0;marginBottom=0;html=1;" parent="1" vertex="1">
          <mxGeometry x="300" y="-640" width="140" height="143" as="geometry" />
        </mxCell>
        <mxCell id="ENczCvl2RCd71qkHRR7Z-10" value="Clock" style="text;html=1;strokeColor=none;fillColor=none;align=left;verticalAlign=middle;spacingLeft=4;spacingRight=4;overflow=hidden;rotatable=0;points=[[0,0.5],[1,0.5]];portConstraint=eastwest;" parent="ENczCvl2RCd71qkHRR7Z-9" vertex="1">
          <mxGeometry y="55" width="140" height="20" as="geometry" />
        </mxCell>
        <mxCell id="ENczCvl2RCd71qkHRR7Z-11" value="Global Stats" style="text;html=1;strokeColor=none;fillColor=none;align=left;verticalAlign=middle;spacingLeft=4;spacingRight=4;overflow=hidden;rotatable=0;points=[[0,0.5],[1,0.5]];portConstraint=eastwest;" parent="ENczCvl2RCd71qkHRR7Z-9" vertex="1">
          <mxGeometry y="75" width="140" height="20" as="geometry" />
        </mxCell>
        <mxCell id="ENczCvl2RCd71qkHRR7Z-12" value="sfEvent var" style="text;html=1;strokeColor=none;fillColor=none;align=left;verticalAlign=middle;spacingLeft=4;spacingRight=4;overflow=hidden;rotatable=0;points=[[0,0.5],[1,0.5]];portConstraint=eastwest;" parent="ENczCvl2RCd71qkHRR7Z-9" vertex="1">
          <mxGeometry y="95" width="140" height="20" as="geometry" />
        </mxCell>
        <mxCell id="6xFeGSdGHfi5s4vFCLi4-55" value="cursor" style="text;html=1;strokeColor=none;fillColor=none;align=left;verticalAlign=middle;spacingLeft=4;spacingRight=4;overflow=hidden;rotatable=0;points=[[0,0.5],[1,0.5]];portConstraint=eastwest;" vertex="1" parent="ENczCvl2RCd71qkHRR7Z-9">
          <mxGeometry y="115" width="140" height="20" as="geometry" />
        </mxCell>
        <mxCell id="ENczCvl2RCd71qkHRR7Z-13" value="" style="line;strokeWidth=1;fillColor=none;align=left;verticalAlign=middle;spacingTop=-1;spacingLeft=3;spacingRight=3;rotatable=0;labelPosition=right;points=[];portConstraint=eastwest;" parent="ENczCvl2RCd71qkHRR7Z-9" vertex="1">
          <mxGeometry y="135" width="140" height="8" as="geometry" />
        </mxCell>
        <mxCell id="ENczCvl2RCd71qkHRR7Z-14" style="edgeStyle=orthogonalEdgeStyle;rounded=0;orthogonalLoop=1;jettySize=auto;html=1;exitX=1;exitY=0.5;exitDx=0;exitDy=0;entryX=0;entryY=0.169;entryDx=0;entryDy=0;entryPerimeter=0;" parent="1" source="ENczCvl2RCd71qkHRR7Z-11" target="ENczCvl2RCd71qkHRR7Z-15" edge="1">
          <mxGeometry relative="1" as="geometry">
            <mxPoint x="220" y="-70" as="targetPoint" />
          </mxGeometry>
        </mxCell>
        <mxCell id="ENczCvl2RCd71qkHRR7Z-15" value="&lt;div&gt;Global Stats&lt;br&gt;&lt;/div&gt;" style="swimlane;fontStyle=0;align=center;verticalAlign=top;childLayout=stackLayout;horizontal=1;startSize=55;horizontalStack=0;resizeParent=1;resizeParentMax=0;resizeLast=0;collapsible=0;marginBottom=0;html=1;" parent="1" vertex="1">
          <mxGeometry x="690" y="-660" width="140" height="183" as="geometry" />
        </mxCell>
        <mxCell id="ENczCvl2RCd71qkHRR7Z-16" value="int Mile Stones" style="text;html=1;strokeColor=none;fillColor=none;align=center;verticalAlign=middle;spacingLeft=4;spacingRight=4;overflow=hidden;rotatable=0;points=[[0,0.5],[1,0.5]];portConstraint=eastwest;" parent="ENczCvl2RCd71qkHRR7Z-15" vertex="1">
          <mxGeometry y="55" width="140" height="20" as="geometry" />
        </mxCell>
        <mxCell id="ENczCvl2RCd71qkHRR7Z-17" value="text_t total_time" style="text;html=1;strokeColor=none;fillColor=none;align=center;verticalAlign=middle;spacingLeft=4;spacingRight=4;overflow=hidden;rotatable=0;points=[[0,0.5],[1,0.5]];portConstraint=eastwest;" parent="ENczCvl2RCd71qkHRR7Z-15" vertex="1">
          <mxGeometry y="75" width="140" height="20" as="geometry" />
        </mxCell>
        <mxCell id="ENczCvl2RCd71qkHRR7Z-18" value="text_t progression" style="text;html=1;strokeColor=none;fillColor=none;align=center;verticalAlign=middle;spacingLeft=4;spacingRight=4;overflow=hidden;rotatable=0;points=[[0,0.5],[1,0.5]];portConstraint=eastwest;" parent="ENczCvl2RCd71qkHRR7Z-15" vertex="1">
          <mxGeometry y="95" width="140" height="20" as="geometry" />
        </mxCell>
        <mxCell id="ENczCvl2RCd71qkHRR7Z-19" value="text_t actual scene" style="text;html=1;strokeColor=none;fillColor=none;align=center;verticalAlign=middle;spacingLeft=4;spacingRight=4;overflow=hidden;rotatable=0;points=[[0,0.5],[1,0.5]];portConstraint=eastwest;" parent="ENczCvl2RCd71qkHRR7Z-15" vertex="1">
          <mxGeometry y="115" width="140" height="20" as="geometry" />
        </mxCell>
        <mxCell id="ENczCvl2RCd71qkHRR7Z-20" value="text_t difficulty" style="text;html=1;strokeColor=none;fillColor=none;align=center;verticalAlign=middle;spacingLeft=4;spacingRight=4;overflow=hidden;rotatable=0;points=[[0,0.5],[1,0.5]];portConstraint=eastwest;" parent="ENczCvl2RCd71qkHRR7Z-15" vertex="1">
          <mxGeometry y="135" width="140" height="20" as="geometry" />
        </mxCell>
        <mxCell id="ENczCvl2RCd71qkHRR7Z-21" value="int difficulty Multiplier" style="text;html=1;strokeColor=none;fillColor=none;align=center;verticalAlign=middle;spacingLeft=4;spacingRight=4;overflow=hidden;rotatable=0;points=[[0,0.5],[1,0.5]];portConstraint=eastwest;" parent="ENczCvl2RCd71qkHRR7Z-15" vertex="1">
          <mxGeometry y="155" width="140" height="20" as="geometry" />
        </mxCell>
        <mxCell id="ENczCvl2RCd71qkHRR7Z-22" value="" style="line;strokeWidth=1;fillColor=none;align=left;verticalAlign=middle;spacingTop=-1;spacingLeft=3;spacingRight=3;rotatable=0;labelPosition=right;points=[];portConstraint=eastwest;" parent="ENczCvl2RCd71qkHRR7Z-15" vertex="1">
          <mxGeometry y="175" width="140" height="8" as="geometry" />
        </mxCell>
        <mxCell id="ENczCvl2RCd71qkHRR7Z-23" value="Game Settings" style="swimlane;fontStyle=0;align=center;verticalAlign=top;childLayout=stackLayout;horizontal=1;startSize=55;horizontalStack=0;resizeParent=1;resizeParentMax=0;resizeLast=0;collapsible=0;marginBottom=0;html=1;" parent="1" vertex="1">
          <mxGeometry x="300" y="-200" width="140" height="123" as="geometry" />
        </mxCell>
        <mxCell id="6xFeGSdGHfi5s4vFCLi4-54" value="Video Data" style="text;html=1;strokeColor=none;fillColor=none;align=center;verticalAlign=middle;spacingLeft=4;spacingRight=4;overflow=hidden;rotatable=0;points=[[0,0.5],[1,0.5]];portConstraint=eastwest;" vertex="1" parent="ENczCvl2RCd71qkHRR7Z-23">
          <mxGeometry y="55" width="140" height="20" as="geometry" />
        </mxCell>
        <mxCell id="ENczCvl2RCd71qkHRR7Z-24" value="Video Data" style="text;html=1;strokeColor=none;fillColor=none;align=center;verticalAlign=middle;spacingLeft=4;spacingRight=4;overflow=hidden;rotatable=0;points=[[0,0.5],[1,0.5]];portConstraint=eastwest;" parent="ENczCvl2RCd71qkHRR7Z-23" vertex="1">
          <mxGeometry y="75" width="140" height="20" as="geometry" />
        </mxCell>
        <mxCell id="ENczCvl2RCd71qkHRR7Z-25" value="Audio Data" style="text;html=1;strokeColor=none;fillColor=none;align=center;verticalAlign=middle;spacingLeft=4;spacingRight=4;overflow=hidden;rotatable=0;points=[[0,0.5],[1,0.5]];portConstraint=eastwest;" parent="ENczCvl2RCd71qkHRR7Z-23" vertex="1">
          <mxGeometry y="95" width="140" height="20" as="geometry" />
        </mxCell>
        <mxCell id="ENczCvl2RCd71qkHRR7Z-26" value="" style="line;strokeWidth=1;fillColor=none;align=left;verticalAlign=middle;spacingTop=-1;spacingLeft=3;spacingRight=3;rotatable=0;labelPosition=right;points=[];portConstraint=eastwest;" parent="ENczCvl2RCd71qkHRR7Z-23" vertex="1">
          <mxGeometry y="115" width="140" height="8" as="geometry" />
        </mxCell>
        <mxCell id="ENczCvl2RCd71qkHRR7Z-27" style="edgeStyle=orthogonalEdgeStyle;rounded=0;orthogonalLoop=1;jettySize=auto;html=1;exitX=1;exitY=0.5;exitDx=0;exitDy=0;entryX=0;entryY=0.25;entryDx=0;entryDy=0;" parent="1" source="ENczCvl2RCd71qkHRR7Z-4" target="ENczCvl2RCd71qkHRR7Z-23" edge="1">
          <mxGeometry relative="1" as="geometry">
            <Array as="points">
              <mxPoint x="190" y="-882" />
              <mxPoint x="190" y="-169" />
            </Array>
          </mxGeometry>
        </mxCell>
        <mxCell id="ENczCvl2RCd71qkHRR7Z-28" value="Game Scene" style="swimlane;fontStyle=0;align=center;verticalAlign=top;childLayout=stackLayout;horizontal=1;startSize=55;horizontalStack=0;resizeParent=1;resizeParentMax=0;resizeLast=0;collapsible=0;marginBottom=0;html=1;" parent="1" vertex="1">
          <mxGeometry x="300" y="-1003" width="140" height="183" as="geometry" />
        </mxCell>
        <mxCell id="ENczCvl2RCd71qkHRR7Z-29" value="id" style="text;html=1;strokeColor=none;fillColor=none;align=center;verticalAlign=middle;spacingLeft=4;spacingRight=4;overflow=hidden;rotatable=0;points=[[0,0.5],[1,0.5]];portConstraint=eastwest;" parent="ENczCvl2RCd71qkHRR7Z-28" vertex="1">
          <mxGeometry y="55" width="140" height="20" as="geometry" />
        </mxCell>
        <mxCell id="ENczCvl2RCd71qkHRR7Z-30" value="Char *Name" style="text;html=1;strokeColor=none;fillColor=none;align=center;verticalAlign=middle;spacingLeft=4;spacingRight=4;overflow=hidden;rotatable=0;points=[[0,0.5],[1,0.5]];portConstraint=eastwest;" parent="ENczCvl2RCd71qkHRR7Z-28" vertex="1">
          <mxGeometry y="75" width="140" height="20" as="geometry" />
        </mxCell>
        <mxCell id="ENczCvl2RCd71qkHRR7Z-31" value="entity_t" style="text;html=1;strokeColor=none;fillColor=none;align=center;verticalAlign=middle;spacingLeft=4;spacingRight=4;overflow=hidden;rotatable=0;points=[[0,0.5],[1,0.5]];portConstraint=eastwest;" parent="ENczCvl2RCd71qkHRR7Z-28" vertex="1">
          <mxGeometry y="95" width="140" height="20" as="geometry" />
        </mxCell>
        <mxCell id="6xFeGSdGHfi5s4vFCLi4-65" value="scripts" style="text;html=1;strokeColor=none;fillColor=none;align=center;verticalAlign=middle;spacingLeft=4;spacingRight=4;overflow=hidden;rotatable=0;points=[[0,0.5],[1,0.5]];portConstraint=eastwest;" vertex="1" parent="ENczCvl2RCd71qkHRR7Z-28">
          <mxGeometry y="115" width="140" height="20" as="geometry" />
        </mxCell>
        <mxCell id="ENczCvl2RCd71qkHRR7Z-36" value="Events Action List" style="text;html=1;strokeColor=none;fillColor=none;align=center;verticalAlign=middle;spacingLeft=4;spacingRight=4;overflow=hidden;rotatable=0;points=[[0,0.5],[1,0.5]];portConstraint=eastwest;" parent="ENczCvl2RCd71qkHRR7Z-28" vertex="1">
          <mxGeometry y="135" width="140" height="20" as="geometry" />
        </mxCell>
        <mxCell id="ENczCvl2RCd71qkHRR7Z-37" value="Pause Game Scene" style="text;html=1;strokeColor=none;fillColor=none;align=center;verticalAlign=middle;spacingLeft=4;spacingRight=4;overflow=hidden;rotatable=0;points=[[0,0.5],[1,0.5]];portConstraint=eastwest;" parent="ENczCvl2RCd71qkHRR7Z-28" vertex="1">
          <mxGeometry y="155" width="140" height="20" as="geometry" />
        </mxCell>
        <mxCell id="ENczCvl2RCd71qkHRR7Z-38" value="" style="line;strokeWidth=1;fillColor=none;align=left;verticalAlign=middle;spacingTop=-1;spacingLeft=3;spacingRight=3;rotatable=0;labelPosition=right;points=[];portConstraint=eastwest;" parent="ENczCvl2RCd71qkHRR7Z-28" vertex="1">
          <mxGeometry y="175" width="140" height="8" as="geometry" />
        </mxCell>
        <mxCell id="ENczCvl2RCd71qkHRR7Z-39" style="edgeStyle=orthogonalEdgeStyle;rounded=0;orthogonalLoop=1;jettySize=auto;html=1;entryX=0;entryY=0.136;entryDx=0;entryDy=0;entryPerimeter=0;" parent="ENczCvl2RCd71qkHRR7Z-28" source="ENczCvl2RCd71qkHRR7Z-37" target="ENczCvl2RCd71qkHRR7Z-28" edge="1">
          <mxGeometry relative="1" as="geometry">
            <mxPoint x="-40" y="225" as="targetPoint" />
          </mxGeometry>
        </mxCell>
        <mxCell id="ENczCvl2RCd71qkHRR7Z-40" style="edgeStyle=orthogonalEdgeStyle;rounded=0;orthogonalLoop=1;jettySize=auto;html=1;entryX=0;entryY=0.25;entryDx=0;entryDy=0;" parent="1" source="ENczCvl2RCd71qkHRR7Z-3" target="ENczCvl2RCd71qkHRR7Z-9" edge="1">
          <mxGeometry relative="1" as="geometry">
            <mxPoint x="-10" y="-900" as="sourcePoint" />
          </mxGeometry>
        </mxCell>
        <mxCell id="ENczCvl2RCd71qkHRR7Z-41" style="edgeStyle=orthogonalEdgeStyle;rounded=0;orthogonalLoop=1;jettySize=auto;html=1;exitX=1;exitY=0.5;exitDx=0;exitDy=0;entryX=0.007;entryY=0.095;entryDx=0;entryDy=0;entryPerimeter=0;" parent="1" source="ENczCvl2RCd71qkHRR7Z-2" target="ENczCvl2RCd71qkHRR7Z-28" edge="1">
          <mxGeometry relative="1" as="geometry" />
        </mxCell>
        <mxCell id="ENczCvl2RCd71qkHRR7Z-48" value="Audio Data" style="swimlane;fontStyle=0;align=center;verticalAlign=top;childLayout=stackLayout;horizontal=1;startSize=55;horizontalStack=0;resizeParent=1;resizeParentMax=0;resizeLast=0;collapsible=0;marginBottom=0;html=1;" parent="1" vertex="1">
          <mxGeometry x="690" y="45" width="140" height="115" as="geometry" />
        </mxCell>
        <mxCell id="ENczCvl2RCd71qkHRR7Z-49" value="int Master Volume" style="text;html=1;strokeColor=none;fillColor=none;align=center;verticalAlign=middle;spacingLeft=4;spacingRight=4;overflow=hidden;rotatable=0;points=[[0,0.5],[1,0.5]];portConstraint=eastwest;" parent="ENczCvl2RCd71qkHRR7Z-48" vertex="1">
          <mxGeometry y="55" width="140" height="20" as="geometry" />
        </mxCell>
        <mxCell id="ENczCvl2RCd71qkHRR7Z-50" value="Music List" style="text;html=1;strokeColor=none;fillColor=none;align=center;verticalAlign=middle;spacingLeft=4;spacingRight=4;overflow=hidden;rotatable=0;points=[[0,0.5],[1,0.5]];portConstraint=eastwest;" parent="ENczCvl2RCd71qkHRR7Z-48" vertex="1">
          <mxGeometry y="75" width="140" height="20" as="geometry" />
        </mxCell>
        <mxCell id="ENczCvl2RCd71qkHRR7Z-51" value="Sounds" style="text;html=1;strokeColor=none;fillColor=none;align=center;verticalAlign=middle;spacingLeft=4;spacingRight=4;overflow=hidden;rotatable=0;points=[[0,0.5],[1,0.5]];portConstraint=eastwest;" parent="ENczCvl2RCd71qkHRR7Z-48" vertex="1">
          <mxGeometry y="95" width="140" height="20" as="geometry" />
        </mxCell>
        <mxCell id="ENczCvl2RCd71qkHRR7Z-52" style="edgeStyle=orthogonalEdgeStyle;rounded=0;orthogonalLoop=1;jettySize=auto;html=1;exitX=1;exitY=0.5;exitDx=0;exitDy=0;entryX=0.007;entryY=0.187;entryDx=0;entryDy=0;entryPerimeter=0;" parent="1" source="ENczCvl2RCd71qkHRR7Z-24" target="ENczCvl2RCd71qkHRR7Z-42" edge="1">
          <mxGeometry relative="1" as="geometry" />
        </mxCell>
        <mxCell id="ENczCvl2RCd71qkHRR7Z-53" style="edgeStyle=orthogonalEdgeStyle;rounded=0;orthogonalLoop=1;jettySize=auto;html=1;exitX=1;exitY=0.5;exitDx=0;exitDy=0;entryX=0;entryY=0.175;entryDx=0;entryDy=0;entryPerimeter=0;" parent="1" source="ENczCvl2RCd71qkHRR7Z-25" target="ENczCvl2RCd71qkHRR7Z-48" edge="1">
          <mxGeometry relative="1" as="geometry" />
        </mxCell>
        <mxCell id="ENczCvl2RCd71qkHRR7Z-54" value="&lt;div&gt;Music List&lt;/div&gt;&lt;div&gt;(1 Node Here)&lt;br&gt;&lt;/div&gt;" style="swimlane;fontStyle=0;align=center;verticalAlign=top;childLayout=stackLayout;horizontal=1;startSize=55;horizontalStack=0;resizeParent=1;resizeParentMax=0;resizeLast=0;collapsible=0;marginBottom=0;html=1;" parent="1" vertex="1">
          <mxGeometry x="910" y="45" width="140" height="155" as="geometry" />
        </mxCell>
        <mxCell id="ENczCvl2RCd71qkHRR7Z-55" value="char * Name" style="text;html=1;strokeColor=none;fillColor=none;align=center;verticalAlign=middle;spacingLeft=4;spacingRight=4;overflow=hidden;rotatable=0;points=[[0,0.5],[1,0.5]];portConstraint=eastwest;" parent="ENczCvl2RCd71qkHRR7Z-54" vertex="1">
          <mxGeometry y="55" width="140" height="20" as="geometry" />
        </mxCell>
        <mxCell id="ENczCvl2RCd71qkHRR7Z-56" value="id Type" style="text;html=1;strokeColor=none;fillColor=none;align=center;verticalAlign=middle;spacingLeft=4;spacingRight=4;overflow=hidden;rotatable=0;points=[[0,0.5],[1,0.5]];portConstraint=eastwest;" parent="ENczCvl2RCd71qkHRR7Z-54" vertex="1">
          <mxGeometry y="75" width="140" height="20" as="geometry" />
        </mxCell>
        <mxCell id="ENczCvl2RCd71qkHRR7Z-57" value="sfMusic" style="text;html=1;strokeColor=none;fillColor=none;align=center;verticalAlign=middle;spacingLeft=4;spacingRight=4;overflow=hidden;rotatable=0;points=[[0,0.5],[1,0.5]];portConstraint=eastwest;" parent="ENczCvl2RCd71qkHRR7Z-54" vertex="1">
          <mxGeometry y="95" width="140" height="20" as="geometry" />
        </mxCell>
        <mxCell id="ENczCvl2RCd71qkHRR7Z-58" value="int volume" style="text;html=1;strokeColor=none;fillColor=none;align=center;verticalAlign=middle;spacingLeft=4;spacingRight=4;overflow=hidden;rotatable=0;points=[[0,0.5],[1,0.5]];portConstraint=eastwest;" parent="ENczCvl2RCd71qkHRR7Z-54" vertex="1">
          <mxGeometry y="115" width="140" height="20" as="geometry" />
        </mxCell>
        <mxCell id="ENczCvl2RCd71qkHRR7Z-59" value="Next Music" style="text;html=1;strokeColor=none;fillColor=none;align=center;verticalAlign=middle;spacingLeft=4;spacingRight=4;overflow=hidden;rotatable=0;points=[[0,0.5],[1,0.5]];portConstraint=eastwest;" parent="ENczCvl2RCd71qkHRR7Z-54" vertex="1">
          <mxGeometry y="135" width="140" height="20" as="geometry" />
        </mxCell>
        <mxCell id="ENczCvl2RCd71qkHRR7Z-61" style="edgeStyle=orthogonalEdgeStyle;rounded=0;orthogonalLoop=1;jettySize=auto;html=1;exitX=1;exitY=0.5;exitDx=0;exitDy=0;entryX=0.008;entryY=0.117;entryDx=0;entryDy=0;entryPerimeter=0;" parent="1" source="ENczCvl2RCd71qkHRR7Z-50" target="ENczCvl2RCd71qkHRR7Z-54" edge="1">
          <mxGeometry relative="1" as="geometry" />
        </mxCell>
        <mxCell id="ENczCvl2RCd71qkHRR7Z-62" value="Sounds" style="swimlane;fontStyle=0;align=center;verticalAlign=top;childLayout=stackLayout;horizontal=1;startSize=55;horizontalStack=0;resizeParent=1;resizeParentMax=0;resizeLast=0;collapsible=0;marginBottom=0;html=1;" parent="1" vertex="1">
          <mxGeometry x="910" y="230" width="140" height="115" as="geometry" />
        </mxCell>
        <mxCell id="ENczCvl2RCd71qkHRR7Z-63" value="enum Toggle" style="text;html=1;strokeColor=none;fillColor=none;align=center;verticalAlign=middle;spacingLeft=4;spacingRight=4;overflow=hidden;rotatable=0;points=[[0,0.5],[1,0.5]];portConstraint=eastwest;" parent="ENczCvl2RCd71qkHRR7Z-62" vertex="1">
          <mxGeometry y="55" width="140" height="20" as="geometry" />
        </mxCell>
        <mxCell id="ENczCvl2RCd71qkHRR7Z-64" value="sound_t *sounds" style="text;html=1;strokeColor=none;fillColor=none;align=center;verticalAlign=middle;spacingLeft=4;spacingRight=4;overflow=hidden;rotatable=0;points=[[0,0.5],[1,0.5]];portConstraint=eastwest;" parent="ENczCvl2RCd71qkHRR7Z-62" vertex="1">
          <mxGeometry y="75" width="140" height="20" as="geometry" />
        </mxCell>
        <mxCell id="ENczCvl2RCd71qkHRR7Z-65" value="int Sound Count" style="text;html=1;strokeColor=none;fillColor=none;align=center;verticalAlign=middle;spacingLeft=4;spacingRight=4;overflow=hidden;rotatable=0;points=[[0,0.5],[1,0.5]];portConstraint=eastwest;" parent="ENczCvl2RCd71qkHRR7Z-62" vertex="1">
          <mxGeometry y="95" width="140" height="20" as="geometry" />
        </mxCell>
        <mxCell id="ENczCvl2RCd71qkHRR7Z-66" style="edgeStyle=orthogonalEdgeStyle;rounded=0;orthogonalLoop=1;jettySize=auto;html=1;exitX=1;exitY=0.5;exitDx=0;exitDy=0;entryX=0;entryY=0.25;entryDx=0;entryDy=0;" parent="1" source="ENczCvl2RCd71qkHRR7Z-51" target="ENczCvl2RCd71qkHRR7Z-62" edge="1">
          <mxGeometry relative="1" as="geometry" />
        </mxCell>
        <mxCell id="ENczCvl2RCd71qkHRR7Z-67" value="scripts" style="swimlane;fontStyle=0;align=center;verticalAlign=top;childLayout=stackLayout;horizontal=1;startSize=55;horizontalStack=0;resizeParent=1;resizeParentMax=0;resizeLast=0;collapsible=0;marginBottom=0;html=1;" parent="1" vertex="1">
          <mxGeometry x="1560" y="-280" width="140" height="175" as="geometry" />
        </mxCell>
        <mxCell id="ENczCvl2RCd71qkHRR7Z-69" value="void *data" style="text;html=1;strokeColor=none;fillColor=none;align=center;verticalAlign=middle;spacingLeft=4;spacingRight=4;overflow=hidden;rotatable=0;points=[[0,0.5],[1,0.5]];portConstraint=eastwest;" parent="ENczCvl2RCd71qkHRR7Z-67" vertex="1">
          <mxGeometry y="55" width="140" height="20" as="geometry" />
        </mxCell>
        <mxCell id="6xFeGSdGHfi5s4vFCLi4-53" value="bool is_time_dependent" style="text;html=1;strokeColor=none;fillColor=none;align=center;verticalAlign=middle;spacingLeft=4;spacingRight=4;overflow=hidden;rotatable=0;points=[[0,0.5],[1,0.5]];portConstraint=eastwest;" vertex="1" parent="ENczCvl2RCd71qkHRR7Z-67">
          <mxGeometry y="75" width="140" height="20" as="geometry" />
        </mxCell>
        <mxCell id="ENczCvl2RCd71qkHRR7Z-70" value="fct_ptr action" style="text;html=1;strokeColor=none;fillColor=none;align=center;verticalAlign=middle;spacingLeft=4;spacingRight=4;overflow=hidden;rotatable=0;points=[[0,0.5],[1,0.5]];portConstraint=eastwest;" parent="ENczCvl2RCd71qkHRR7Z-67" vertex="1">
          <mxGeometry y="95" width="140" height="20" as="geometry" />
        </mxCell>
        <mxCell id="6xFeGSdGHfi5s4vFCLi4-51" value="&lt;div&gt;int trigger&lt;/div&gt;" style="text;html=1;strokeColor=none;fillColor=none;align=center;verticalAlign=middle;spacingLeft=4;spacingRight=4;overflow=hidden;rotatable=0;points=[[0,0.5],[1,0.5]];portConstraint=eastwest;" vertex="1" parent="ENczCvl2RCd71qkHRR7Z-67">
          <mxGeometry y="115" width="140" height="20" as="geometry" />
        </mxCell>
        <mxCell id="ENczCvl2RCd71qkHRR7Z-72" style="edgeStyle=orthogonalEdgeStyle;rounded=0;orthogonalLoop=1;jettySize=auto;html=1;exitX=0;exitY=0.5;exitDx=0;exitDy=0;entryX=0;entryY=0.277;entryDx=0;entryDy=0;entryPerimeter=0;" parent="ENczCvl2RCd71qkHRR7Z-67" source="ENczCvl2RCd71qkHRR7Z-73" target="ENczCvl2RCd71qkHRR7Z-67" edge="1">
          <mxGeometry relative="1" as="geometry" />
        </mxCell>
        <mxCell id="6xFeGSdGHfi5s4vFCLi4-52" value="int last_time" style="text;html=1;strokeColor=none;fillColor=none;align=center;verticalAlign=middle;spacingLeft=4;spacingRight=4;overflow=hidden;rotatable=0;points=[[0,0.5],[1,0.5]];portConstraint=eastwest;" vertex="1" parent="ENczCvl2RCd71qkHRR7Z-67">
          <mxGeometry y="135" width="140" height="20" as="geometry" />
        </mxCell>
        <mxCell id="ENczCvl2RCd71qkHRR7Z-73" value="Next" style="text;html=1;strokeColor=none;fillColor=none;align=center;verticalAlign=middle;spacingLeft=4;spacingRight=4;overflow=hidden;rotatable=0;points=[[0,0.5],[1,0.5]];portConstraint=eastwest;" parent="ENczCvl2RCd71qkHRR7Z-67" vertex="1">
          <mxGeometry y="155" width="140" height="20" as="geometry" />
        </mxCell>
        <mxCell id="ENczCvl2RCd71qkHRR7Z-74" value="Entity List" style="swimlane;fontStyle=0;align=center;verticalAlign=top;childLayout=stackLayout;horizontal=1;startSize=55;horizontalStack=0;resizeParent=1;resizeParentMax=0;resizeLast=0;collapsible=0;marginBottom=0;html=1;" parent="1" vertex="1">
          <mxGeometry x="1000" y="-460" width="140" height="95" as="geometry" />
        </mxCell>
        <mxCell id="ENczCvl2RCd71qkHRR7Z-75" value="Entity" style="text;html=1;strokeColor=none;fillColor=none;align=center;verticalAlign=middle;spacingLeft=4;spacingRight=4;overflow=hidden;rotatable=0;points=[[0,0.5],[1,0.5]];portConstraint=eastwest;" parent="ENczCvl2RCd71qkHRR7Z-74" vertex="1">
          <mxGeometry y="55" width="140" height="20" as="geometry" />
        </mxCell>
        <mxCell id="ENczCvl2RCd71qkHRR7Z-76" style="edgeStyle=orthogonalEdgeStyle;rounded=0;orthogonalLoop=1;jettySize=auto;html=1;exitX=0;exitY=0.5;exitDx=0;exitDy=0;entryX=0;entryY=0.338;entryDx=0;entryDy=0;entryPerimeter=0;" parent="ENczCvl2RCd71qkHRR7Z-74" source="ENczCvl2RCd71qkHRR7Z-77" target="ENczCvl2RCd71qkHRR7Z-74" edge="1">
          <mxGeometry relative="1" as="geometry" />
        </mxCell>
        <mxCell id="ENczCvl2RCd71qkHRR7Z-77" value="Next Entity" style="text;html=1;strokeColor=none;fillColor=none;align=center;verticalAlign=middle;spacingLeft=4;spacingRight=4;overflow=hidden;rotatable=0;points=[[0,0.5],[1,0.5]];portConstraint=eastwest;" parent="ENczCvl2RCd71qkHRR7Z-74" vertex="1">
          <mxGeometry y="75" width="140" height="20" as="geometry" />
        </mxCell>
        <mxCell id="ENczCvl2RCd71qkHRR7Z-79" value="Event Action List" style="swimlane;fontStyle=0;align=center;verticalAlign=top;childLayout=stackLayout;horizontal=1;startSize=55;horizontalStack=0;resizeParent=1;resizeParentMax=0;resizeLast=0;collapsible=0;marginBottom=0;html=1;" parent="1" vertex="1">
          <mxGeometry x="690" y="-840" width="140" height="95" as="geometry" />
        </mxCell>
        <mxCell id="ENczCvl2RCd71qkHRR7Z-80" value="SfEventType Type" style="text;html=1;strokeColor=none;fillColor=none;align=center;verticalAlign=middle;spacingLeft=4;spacingRight=4;overflow=hidden;rotatable=0;points=[[0,0.5],[1,0.5]];portConstraint=eastwest;" parent="ENczCvl2RCd71qkHRR7Z-79" vertex="1">
          <mxGeometry y="55" width="140" height="20" as="geometry" />
        </mxCell>
        <mxCell id="ENczCvl2RCd71qkHRR7Z-81" value="void *Action" style="text;html=1;strokeColor=none;fillColor=none;align=center;verticalAlign=middle;spacingLeft=4;spacingRight=4;overflow=hidden;rotatable=0;points=[[0,0.5],[1,0.5]];portConstraint=eastwest;" parent="ENczCvl2RCd71qkHRR7Z-79" vertex="1">
          <mxGeometry y="75" width="140" height="20" as="geometry" />
        </mxCell>
        <mxCell id="ENczCvl2RCd71qkHRR7Z-85" value="Entity" style="swimlane;fontStyle=0;align=center;verticalAlign=top;childLayout=stackLayout;horizontal=1;startSize=55;horizontalStack=0;resizeParent=1;resizeParentMax=0;resizeLast=0;collapsible=0;marginBottom=0;html=1;" parent="1" vertex="1">
          <mxGeometry x="920" y="-1003" width="140" height="215" as="geometry" />
        </mxCell>
        <mxCell id="ENczCvl2RCd71qkHRR7Z-86" value="char *Name" style="text;html=1;strokeColor=none;fillColor=none;align=center;verticalAlign=middle;spacingLeft=4;spacingRight=4;overflow=hidden;rotatable=0;points=[[0,0.5],[1,0.5]];portConstraint=eastwest;" parent="ENczCvl2RCd71qkHRR7Z-85" vertex="1">
          <mxGeometry y="55" width="140" height="20" as="geometry" />
        </mxCell>
        <mxCell id="6xFeGSdGHfi5s4vFCLi4-1" value="char *path" style="text;html=1;strokeColor=none;fillColor=none;align=center;verticalAlign=middle;spacingLeft=4;spacingRight=4;overflow=hidden;rotatable=0;points=[[0,0.5],[1,0.5]];portConstraint=eastwest;" vertex="1" parent="ENczCvl2RCd71qkHRR7Z-85">
          <mxGeometry y="75" width="140" height="20" as="geometry" />
        </mxCell>
        <mxCell id="6xFeGSdGHfi5s4vFCLi4-2" value="entity_t parent" style="text;html=1;strokeColor=none;fillColor=none;align=center;verticalAlign=middle;spacingLeft=4;spacingRight=4;overflow=hidden;rotatable=0;points=[[0,0.5],[1,0.5]];portConstraint=eastwest;" vertex="1" parent="ENczCvl2RCd71qkHRR7Z-85">
          <mxGeometry y="95" width="140" height="20" as="geometry" />
        </mxCell>
        <mxCell id="ENczCvl2RCd71qkHRR7Z-177" value="id type" style="text;html=1;strokeColor=none;fillColor=none;align=center;verticalAlign=middle;spacingLeft=4;spacingRight=4;overflow=hidden;rotatable=0;points=[[0,0.5],[1,0.5]];portConstraint=eastwest;" parent="ENczCvl2RCd71qkHRR7Z-85" vertex="1">
          <mxGeometry y="115" width="140" height="20" as="geometry" />
        </mxCell>
        <mxCell id="ENczCvl2RCd71qkHRR7Z-87" value="component_t *comp" style="text;html=1;strokeColor=none;fillColor=none;align=center;verticalAlign=middle;spacingLeft=4;spacingRight=4;overflow=hidden;rotatable=0;points=[[0,0.5],[1,0.5]];portConstraint=eastwest;" parent="ENczCvl2RCd71qkHRR7Z-85" vertex="1">
          <mxGeometry y="135" width="140" height="20" as="geometry" />
        </mxCell>
        <mxCell id="ENczCvl2RCd71qkHRR7Z-88" value="entity *children" style="text;html=1;strokeColor=none;fillColor=none;align=center;verticalAlign=middle;spacingLeft=4;spacingRight=4;overflow=hidden;rotatable=0;points=[[0,0.5],[1,0.5]];portConstraint=eastwest;" parent="ENczCvl2RCd71qkHRR7Z-85" vertex="1">
          <mxGeometry y="155" width="140" height="20" as="geometry" />
        </mxCell>
        <mxCell id="6xFeGSdGHfi5s4vFCLi4-4" value="entity_t back" style="text;html=1;strokeColor=none;fillColor=none;align=center;verticalAlign=middle;spacingLeft=4;spacingRight=4;overflow=hidden;rotatable=0;points=[[0,0.5],[1,0.5]];portConstraint=eastwest;" vertex="1" parent="ENczCvl2RCd71qkHRR7Z-85">
          <mxGeometry y="175" width="140" height="20" as="geometry" />
        </mxCell>
        <mxCell id="6xFeGSdGHfi5s4vFCLi4-3" value="entity_t next" style="text;html=1;strokeColor=none;fillColor=none;align=center;verticalAlign=middle;spacingLeft=4;spacingRight=4;overflow=hidden;rotatable=0;points=[[0,0.5],[1,0.5]];portConstraint=eastwest;" vertex="1" parent="ENczCvl2RCd71qkHRR7Z-85">
          <mxGeometry y="195" width="140" height="20" as="geometry" />
        </mxCell>
        <mxCell id="ENczCvl2RCd71qkHRR7Z-92" value="Components_t" style="swimlane;fontStyle=0;align=center;verticalAlign=top;childLayout=stackLayout;horizontal=1;startSize=55;horizontalStack=0;resizeParent=1;resizeParentMax=0;resizeLast=0;collapsible=0;marginBottom=0;html=1;" parent="1" vertex="1">
          <mxGeometry x="1190" y="-1003" width="140" height="215" as="geometry" />
        </mxCell>
        <mxCell id="ENczCvl2RCd71qkHRR7Z-93" value="text_t *text" style="text;html=1;strokeColor=none;fillColor=none;align=center;verticalAlign=middle;spacingLeft=4;spacingRight=4;overflow=hidden;rotatable=0;points=[[0,0.5],[1,0.5]];portConstraint=eastwest;" parent="ENczCvl2RCd71qkHRR7Z-92" vertex="1">
          <mxGeometry y="55" width="140" height="20" as="geometry" />
        </mxCell>
        <mxCell id="ENczCvl2RCd71qkHRR7Z-94" value="sfx_list_t *sounds" style="text;html=1;strokeColor=none;fillColor=none;align=center;verticalAlign=middle;spacingLeft=4;spacingRight=4;overflow=hidden;rotatable=0;points=[[0,0.5],[1,0.5]];portConstraint=eastwest;" parent="ENczCvl2RCd71qkHRR7Z-92" vertex="1">
          <mxGeometry y="75" width="140" height="20" as="geometry" />
        </mxCell>
        <mxCell id="ENczCvl2RCd71qkHRR7Z-95" value="object_list_t *objects" style="text;html=1;strokeColor=none;fillColor=none;align=center;verticalAlign=middle;spacingLeft=4;spacingRight=4;overflow=hidden;rotatable=0;points=[[0,0.5],[1,0.5]];portConstraint=eastwest;" parent="ENczCvl2RCd71qkHRR7Z-92" vertex="1">
          <mxGeometry y="95" width="140" height="20" as="geometry" />
        </mxCell>
        <mxCell id="ENczCvl2RCd71qkHRR7Z-96" value="transform" style="text;html=1;strokeColor=none;fillColor=none;align=center;verticalAlign=middle;spacingLeft=4;spacingRight=4;overflow=hidden;rotatable=0;points=[[0,0.5],[1,0.5]];portConstraint=eastwest;" parent="ENczCvl2RCd71qkHRR7Z-92" vertex="1">
          <mxGeometry y="115" width="140" height="20" as="geometry" />
        </mxCell>
        <mxCell id="ENczCvl2RCd71qkHRR7Z-172" value="scripts" style="text;html=1;strokeColor=none;fillColor=none;align=center;verticalAlign=middle;spacingLeft=4;spacingRight=4;overflow=hidden;rotatable=0;points=[[0,0.5],[1,0.5]];portConstraint=eastwest;" parent="ENczCvl2RCd71qkHRR7Z-92" vertex="1">
          <mxGeometry y="135" width="140" height="20" as="geometry" />
        </mxCell>
        <mxCell id="ENczCvl2RCd71qkHRR7Z-188" value="collider" style="text;html=1;strokeColor=none;fillColor=none;align=center;verticalAlign=middle;spacingLeft=4;spacingRight=4;overflow=hidden;rotatable=0;points=[[0,0.5],[1,0.5]];portConstraint=eastwest;" parent="ENczCvl2RCd71qkHRR7Z-92" vertex="1">
          <mxGeometry y="155" width="140" height="20" as="geometry" />
        </mxCell>
        <mxCell id="ENczCvl2RCd71qkHRR7Z-197" value="&lt;div&gt;interative&lt;/div&gt;" style="text;html=1;strokeColor=none;fillColor=none;align=center;verticalAlign=middle;spacingLeft=4;spacingRight=4;overflow=hidden;rotatable=0;points=[[0,0.5],[1,0.5]];portConstraint=eastwest;" parent="ENczCvl2RCd71qkHRR7Z-92" vertex="1">
          <mxGeometry y="175" width="140" height="20" as="geometry" />
        </mxCell>
        <mxCell id="6xFeGSdGHfi5s4vFCLi4-18" value="animation" style="text;html=1;strokeColor=none;fillColor=none;align=center;verticalAlign=middle;spacingLeft=4;spacingRight=4;overflow=hidden;rotatable=0;points=[[0,0.5],[1,0.5]];portConstraint=eastwest;" vertex="1" parent="ENczCvl2RCd71qkHRR7Z-92">
          <mxGeometry y="195" width="140" height="20" as="geometry" />
        </mxCell>
        <mxCell id="ENczCvl2RCd71qkHRR7Z-97" style="edgeStyle=orthogonalEdgeStyle;rounded=0;orthogonalLoop=1;jettySize=auto;html=1;exitX=1;exitY=0.5;exitDx=0;exitDy=0;entryX=0;entryY=0.25;entryDx=0;entryDy=0;" parent="1" source="ENczCvl2RCd71qkHRR7Z-87" target="ENczCvl2RCd71qkHRR7Z-92" edge="1">
          <mxGeometry relative="1" as="geometry" />
        </mxCell>
        <mxCell id="ENczCvl2RCd71qkHRR7Z-98" value="Texts_t" style="swimlane;fontStyle=0;align=center;verticalAlign=top;childLayout=stackLayout;horizontal=1;startSize=55;horizontalStack=0;resizeParent=1;resizeParentMax=0;resizeLast=0;collapsible=0;marginBottom=0;html=1;" parent="1" vertex="1">
          <mxGeometry x="1560" y="-1015" width="140" height="115" as="geometry" />
        </mxCell>
        <mxCell id="ENczCvl2RCd71qkHRR7Z-185" value="toogle_t toogle" style="text;html=1;strokeColor=none;fillColor=none;align=center;verticalAlign=middle;spacingLeft=4;spacingRight=4;overflow=hidden;rotatable=0;points=[[0,0.5],[1,0.5]];portConstraint=eastwest;" parent="ENczCvl2RCd71qkHRR7Z-98" vertex="1">
          <mxGeometry y="55" width="140" height="20" as="geometry" />
        </mxCell>
        <mxCell id="ENczCvl2RCd71qkHRR7Z-99" value="text list" style="text;html=1;strokeColor=none;fillColor=none;align=center;verticalAlign=middle;spacingLeft=4;spacingRight=4;overflow=hidden;rotatable=0;points=[[0,0.5],[1,0.5]];portConstraint=eastwest;" parent="ENczCvl2RCd71qkHRR7Z-98" vertex="1">
          <mxGeometry y="75" width="140" height="20" as="geometry" />
        </mxCell>
        <mxCell id="ENczCvl2RCd71qkHRR7Z-186" value="int count" style="text;html=1;strokeColor=none;fillColor=none;align=center;verticalAlign=middle;spacingLeft=4;spacingRight=4;overflow=hidden;rotatable=0;points=[[0,0.5],[1,0.5]];portConstraint=eastwest;" parent="ENczCvl2RCd71qkHRR7Z-98" vertex="1">
          <mxGeometry y="95" width="140" height="20" as="geometry" />
        </mxCell>
        <mxCell id="ENczCvl2RCd71qkHRR7Z-103" style="edgeStyle=orthogonalEdgeStyle;rounded=0;orthogonalLoop=1;jettySize=auto;html=1;exitX=1;exitY=0.5;exitDx=0;exitDy=0;entryX=0.013;entryY=0.142;entryDx=0;entryDy=0;entryPerimeter=0;" parent="1" source="ENczCvl2RCd71qkHRR7Z-93" target="ENczCvl2RCd71qkHRR7Z-98" edge="1">
          <mxGeometry relative="1" as="geometry">
            <mxPoint x="1490" y="-990" as="targetPoint" />
            <Array as="points">
              <mxPoint x="1410" y="-938" />
              <mxPoint x="1410" y="-999" />
            </Array>
          </mxGeometry>
        </mxCell>
        <mxCell id="ENczCvl2RCd71qkHRR7Z-104" value="sfx_list_t" style="swimlane;fontStyle=0;align=center;verticalAlign=top;childLayout=stackLayout;horizontal=1;startSize=55;horizontalStack=0;resizeParent=1;resizeParentMax=0;resizeLast=0;collapsible=0;marginBottom=0;html=1;" parent="1" vertex="1">
          <mxGeometry x="1560" y="-802" width="140" height="115" as="geometry" />
        </mxCell>
        <mxCell id="ENczCvl2RCd71qkHRR7Z-105" value="toggle_t toggle" style="text;html=1;strokeColor=none;fillColor=none;align=center;verticalAlign=middle;spacingLeft=4;spacingRight=4;overflow=hidden;rotatable=0;points=[[0,0.5],[1,0.5]];portConstraint=eastwest;" parent="ENczCvl2RCd71qkHRR7Z-104" vertex="1">
          <mxGeometry y="55" width="140" height="20" as="geometry" />
        </mxCell>
        <mxCell id="ENczCvl2RCd71qkHRR7Z-106" value="sound_t *list" style="text;html=1;strokeColor=none;fillColor=none;align=center;verticalAlign=middle;spacingLeft=4;spacingRight=4;overflow=hidden;rotatable=0;points=[[0,0.5],[1,0.5]];portConstraint=eastwest;" parent="ENczCvl2RCd71qkHRR7Z-104" vertex="1">
          <mxGeometry y="75" width="140" height="20" as="geometry" />
        </mxCell>
        <mxCell id="ENczCvl2RCd71qkHRR7Z-107" value="int count" style="text;html=1;strokeColor=none;fillColor=none;align=center;verticalAlign=middle;spacingLeft=4;spacingRight=4;overflow=hidden;rotatable=0;points=[[0,0.5],[1,0.5]];portConstraint=eastwest;" parent="ENczCvl2RCd71qkHRR7Z-104" vertex="1">
          <mxGeometry y="95" width="140" height="20" as="geometry" />
        </mxCell>
        <mxCell id="ENczCvl2RCd71qkHRR7Z-113" style="edgeStyle=orthogonalEdgeStyle;rounded=0;orthogonalLoop=1;jettySize=auto;html=1;exitX=1;exitY=0.5;exitDx=0;exitDy=0;entryX=0;entryY=0.09;entryDx=0;entryDy=0;entryPerimeter=0;" parent="1" source="ENczCvl2RCd71qkHRR7Z-94" target="ENczCvl2RCd71qkHRR7Z-104" edge="1">
          <mxGeometry relative="1" as="geometry">
            <mxPoint x="1550" y="-791" as="targetPoint" />
            <Array as="points">
              <mxPoint x="1520" y="-918" />
              <mxPoint x="1520" y="-792" />
            </Array>
          </mxGeometry>
        </mxCell>
        <mxCell id="ENczCvl2RCd71qkHRR7Z-114" style="edgeStyle=orthogonalEdgeStyle;rounded=0;orthogonalLoop=1;jettySize=auto;html=1;exitX=1;exitY=0.5;exitDx=0;exitDy=0;entryX=0.004;entryY=0.12;entryDx=0;entryDy=0;entryPerimeter=0;" parent="1" source="ENczCvl2RCd71qkHRR7Z-95" target="ENczCvl2RCd71qkHRR7Z-131" edge="1">
          <mxGeometry relative="1" as="geometry">
            <mxPoint x="1489.9999999999995" y="-502.0500000000002" as="targetPoint" />
            <Array as="points">
              <mxPoint x="1500" y="-898" />
              <mxPoint x="1500" y="-612" />
            </Array>
          </mxGeometry>
        </mxCell>
        <mxCell id="ENczCvl2RCd71qkHRR7Z-131" value="render_sprite_t" style="swimlane;fontStyle=0;align=center;verticalAlign=top;childLayout=stackLayout;horizontal=1;startSize=55;horizontalStack=0;resizeParent=1;resizeParentMax=0;resizeLast=0;collapsible=0;marginBottom=0;html=1;" parent="1" vertex="1">
          <mxGeometry x="1560" y="-626" width="140" height="115" as="geometry" />
        </mxCell>
        <mxCell id="ENczCvl2RCd71qkHRR7Z-132" value="toogle_t toogle" style="text;html=1;strokeColor=none;fillColor=none;align=center;verticalAlign=middle;spacingLeft=4;spacingRight=4;overflow=hidden;rotatable=0;points=[[0,0.5],[1,0.5]];portConstraint=eastwest;" parent="ENczCvl2RCd71qkHRR7Z-131" vertex="1">
          <mxGeometry y="55" width="140" height="20" as="geometry" />
        </mxCell>
        <mxCell id="ENczCvl2RCd71qkHRR7Z-134" value="sfSprite *sprite" style="text;html=1;strokeColor=none;fillColor=none;align=center;verticalAlign=middle;spacingLeft=4;spacingRight=4;overflow=hidden;rotatable=0;points=[[0,0.5],[1,0.5]];portConstraint=eastwest;" parent="ENczCvl2RCd71qkHRR7Z-131" vertex="1">
          <mxGeometry y="75" width="140" height="20" as="geometry" />
        </mxCell>
        <mxCell id="ENczCvl2RCd71qkHRR7Z-135" value="sfTexture *texture" style="text;html=1;strokeColor=none;fillColor=none;align=center;verticalAlign=middle;spacingLeft=4;spacingRight=4;overflow=hidden;rotatable=0;points=[[0,0.5],[1,0.5]];portConstraint=eastwest;" parent="ENczCvl2RCd71qkHRR7Z-131" vertex="1">
          <mxGeometry y="95" width="140" height="20" as="geometry" />
        </mxCell>
        <mxCell id="ENczCvl2RCd71qkHRR7Z-139" value="sount_t" style="swimlane;fontStyle=0;align=center;verticalAlign=top;childLayout=stackLayout;horizontal=1;startSize=55;horizontalStack=0;resizeParent=1;resizeParentMax=0;resizeLast=0;collapsible=0;marginBottom=0;html=1;" parent="1" vertex="1">
          <mxGeometry x="1760" y="-802" width="140" height="135" as="geometry" />
        </mxCell>
        <mxCell id="6xFeGSdGHfi5s4vFCLi4-70" value="toogle_t toogle" style="text;html=1;strokeColor=none;fillColor=none;align=center;verticalAlign=middle;spacingLeft=4;spacingRight=4;overflow=hidden;rotatable=0;points=[[0,0.5],[1,0.5]];portConstraint=eastwest;" vertex="1" parent="ENczCvl2RCd71qkHRR7Z-139">
          <mxGeometry y="55" width="140" height="20" as="geometry" />
        </mxCell>
        <mxCell id="ENczCvl2RCd71qkHRR7Z-140" value="char *name" style="text;html=1;strokeColor=none;fillColor=none;align=center;verticalAlign=middle;spacingLeft=4;spacingRight=4;overflow=hidden;rotatable=0;points=[[0,0.5],[1,0.5]];portConstraint=eastwest;" parent="ENczCvl2RCd71qkHRR7Z-139" vertex="1">
          <mxGeometry y="75" width="140" height="20" as="geometry" />
        </mxCell>
        <mxCell id="ENczCvl2RCd71qkHRR7Z-142" value="sfSound *sound" style="text;html=1;strokeColor=none;fillColor=none;align=center;verticalAlign=middle;spacingLeft=4;spacingRight=4;overflow=hidden;rotatable=0;points=[[0,0.5],[1,0.5]];portConstraint=eastwest;" parent="ENczCvl2RCd71qkHRR7Z-139" vertex="1">
          <mxGeometry y="95" width="140" height="20" as="geometry" />
        </mxCell>
        <mxCell id="ENczCvl2RCd71qkHRR7Z-143" value="sfSoundBuffer *buff" style="text;html=1;strokeColor=none;fillColor=none;align=center;verticalAlign=middle;spacingLeft=4;spacingRight=4;overflow=hidden;rotatable=0;points=[[0,0.5],[1,0.5]];portConstraint=eastwest;" parent="ENczCvl2RCd71qkHRR7Z-139" vertex="1">
          <mxGeometry y="115" width="140" height="20" as="geometry" />
        </mxCell>
        <mxCell id="ENczCvl2RCd71qkHRR7Z-146" style="edgeStyle=orthogonalEdgeStyle;rounded=0;orthogonalLoop=1;jettySize=auto;html=1;exitX=1;exitY=0.5;exitDx=0;exitDy=0;entryX=0;entryY=0.166;entryDx=0;entryDy=0;entryPerimeter=0;" parent="1" source="ENczCvl2RCd71qkHRR7Z-106" target="ENczCvl2RCd71qkHRR7Z-139" edge="1">
          <mxGeometry relative="1" as="geometry" />
        </mxCell>
        <mxCell id="ENczCvl2RCd71qkHRR7Z-154" value="transform_t" style="swimlane;fontStyle=0;align=center;verticalAlign=top;childLayout=stackLayout;horizontal=1;startSize=55;horizontalStack=0;resizeParent=1;resizeParentMax=0;resizeLast=0;collapsible=0;marginBottom=0;html=1;" parent="1" vertex="1">
          <mxGeometry x="1560" y="-436" width="140" height="115" as="geometry" />
        </mxCell>
        <mxCell id="ENczCvl2RCd71qkHRR7Z-155" value="sfVector2f position" style="text;html=1;strokeColor=none;fillColor=none;align=center;verticalAlign=middle;spacingLeft=4;spacingRight=4;overflow=hidden;rotatable=0;points=[[0,0.5],[1,0.5]];portConstraint=eastwest;" parent="ENczCvl2RCd71qkHRR7Z-154" vertex="1">
          <mxGeometry y="55" width="140" height="20" as="geometry" />
        </mxCell>
        <mxCell id="ENczCvl2RCd71qkHRR7Z-156" value="sfVector2f scale" style="text;html=1;strokeColor=none;fillColor=none;align=center;verticalAlign=middle;spacingLeft=4;spacingRight=4;overflow=hidden;rotatable=0;points=[[0,0.5],[1,0.5]];portConstraint=eastwest;" parent="ENczCvl2RCd71qkHRR7Z-154" vertex="1">
          <mxGeometry y="75" width="140" height="20" as="geometry" />
        </mxCell>
        <mxCell id="ENczCvl2RCd71qkHRR7Z-157" value="sfVector2f velocity" style="text;html=1;strokeColor=none;fillColor=none;align=center;verticalAlign=middle;spacingLeft=4;spacingRight=4;overflow=hidden;rotatable=0;points=[[0,0.5],[1,0.5]];portConstraint=eastwest;" parent="ENczCvl2RCd71qkHRR7Z-154" vertex="1">
          <mxGeometry y="95" width="140" height="20" as="geometry" />
        </mxCell>
        <mxCell id="ENczCvl2RCd71qkHRR7Z-160" style="edgeStyle=orthogonalEdgeStyle;rounded=0;orthogonalLoop=1;jettySize=auto;html=1;exitX=1;exitY=0.5;exitDx=0;exitDy=0;entryX=0;entryY=0.226;entryDx=0;entryDy=0;entryPerimeter=0;" parent="1" source="ENczCvl2RCd71qkHRR7Z-96" target="ENczCvl2RCd71qkHRR7Z-154" edge="1">
          <mxGeometry relative="1" as="geometry">
            <mxPoint x="1330" y="-858" as="sourcePoint" />
            <mxPoint x="1530" y="-410" as="targetPoint" />
            <Array as="points">
              <mxPoint x="1480" y="-878" />
              <mxPoint x="1480" y="-410" />
            </Array>
          </mxGeometry>
        </mxCell>
        <mxCell id="ENczCvl2RCd71qkHRR7Z-42" value="Video Data" style="swimlane;fontStyle=0;align=center;verticalAlign=top;childLayout=stackLayout;horizontal=1;startSize=55;horizontalStack=0;resizeParent=1;resizeParentMax=0;resizeLast=0;collapsible=0;marginBottom=0;html=1;" parent="1" vertex="1">
          <mxGeometry x="690" y="-200" width="140" height="195" as="geometry" />
        </mxCell>
        <mxCell id="ENczCvl2RCd71qkHRR7Z-43" value="int FPS" style="text;html=1;strokeColor=none;fillColor=none;align=center;verticalAlign=middle;spacingLeft=4;spacingRight=4;overflow=hidden;rotatable=0;points=[[0,0.5],[1,0.5]];portConstraint=eastwest;" parent="ENczCvl2RCd71qkHRR7Z-42" vertex="1">
          <mxGeometry y="55" width="140" height="20" as="geometry" />
        </mxCell>
        <mxCell id="ENczCvl2RCd71qkHRR7Z-44" value="int Screen Width" style="text;html=1;strokeColor=none;fillColor=none;align=center;verticalAlign=middle;spacingLeft=4;spacingRight=4;overflow=hidden;rotatable=0;points=[[0,0.5],[1,0.5]];portConstraint=eastwest;" parent="ENczCvl2RCd71qkHRR7Z-42" vertex="1">
          <mxGeometry y="75" width="140" height="20" as="geometry" />
        </mxCell>
        <mxCell id="ENczCvl2RCd71qkHRR7Z-45" value="int Screen Height" style="text;html=1;strokeColor=none;fillColor=none;align=center;verticalAlign=middle;spacingLeft=4;spacingRight=4;overflow=hidden;rotatable=0;points=[[0,0.5],[1,0.5]];portConstraint=eastwest;" parent="ENczCvl2RCd71qkHRR7Z-42" vertex="1">
          <mxGeometry y="95" width="140" height="20" as="geometry" />
        </mxCell>
        <mxCell id="ENczCvl2RCd71qkHRR7Z-46" value="int Scale Factor" style="text;html=1;strokeColor=none;fillColor=none;align=center;verticalAlign=middle;spacingLeft=4;spacingRight=4;overflow=hidden;rotatable=0;points=[[0,0.5],[1,0.5]];portConstraint=eastwest;" parent="ENczCvl2RCd71qkHRR7Z-42" vertex="1">
          <mxGeometry y="115" width="140" height="20" as="geometry" />
        </mxCell>
        <mxCell id="ENczCvl2RCd71qkHRR7Z-47" value="sfVideo Mode" style="text;html=1;strokeColor=none;fillColor=none;align=center;verticalAlign=middle;spacingLeft=4;spacingRight=4;overflow=hidden;rotatable=0;points=[[0,0.5],[1,0.5]];portConstraint=eastwest;" parent="ENczCvl2RCd71qkHRR7Z-42" vertex="1">
          <mxGeometry y="135" width="140" height="20" as="geometry" />
        </mxCell>
        <mxCell id="ENczCvl2RCd71qkHRR7Z-175" value="sfRenderWindow" style="text;html=1;strokeColor=none;fillColor=none;align=center;verticalAlign=middle;spacingLeft=4;spacingRight=4;overflow=hidden;rotatable=0;points=[[0,0.5],[1,0.5]];portConstraint=eastwest;" parent="ENczCvl2RCd71qkHRR7Z-42" vertex="1">
          <mxGeometry y="155" width="140" height="20" as="geometry" />
        </mxCell>
        <mxCell id="UxHBZCjuVZU_OcwK-Dpz-9" value="&lt;div&gt;view&lt;/div&gt;" style="text;html=1;strokeColor=none;fillColor=none;align=center;verticalAlign=middle;spacingLeft=4;spacingRight=4;overflow=hidden;rotatable=0;points=[[0,0.5],[1,0.5]];portConstraint=eastwest;" parent="ENczCvl2RCd71qkHRR7Z-42" vertex="1">
          <mxGeometry y="175" width="140" height="20" as="geometry" />
        </mxCell>
        <mxCell id="ENczCvl2RCd71qkHRR7Z-174" style="edgeStyle=orthogonalEdgeStyle;rounded=0;orthogonalLoop=1;jettySize=auto;html=1;exitX=1;exitY=0.5;exitDx=0;exitDy=0;entryX=0;entryY=0.123;entryDx=0;entryDy=0;entryPerimeter=0;" parent="1" source="ENczCvl2RCd71qkHRR7Z-172" target="ENczCvl2RCd71qkHRR7Z-67" edge="1">
          <mxGeometry relative="1" as="geometry">
            <mxPoint x="1540" y="-31" as="targetPoint" />
            <Array as="points">
              <mxPoint x="1440" y="-858" />
              <mxPoint x="1440" y="-258" />
              <mxPoint x="1560" y="-258" />
            </Array>
          </mxGeometry>
        </mxCell>
        <mxCell id="ENczCvl2RCd71qkHRR7Z-189" value="collider" style="swimlane;fontStyle=0;align=center;verticalAlign=top;childLayout=stackLayout;horizontal=1;startSize=55;horizontalStack=0;resizeParent=1;resizeParentMax=0;resizeLast=0;collapsible=0;marginBottom=0;html=1;" parent="1" vertex="1">
          <mxGeometry x="1560" y="-77" width="140" height="155" as="geometry" />
        </mxCell>
        <mxCell id="ENczCvl2RCd71qkHRR7Z-190" value="toogle_t toogle" style="text;html=1;strokeColor=none;fillColor=none;align=center;verticalAlign=middle;spacingLeft=4;spacingRight=4;overflow=hidden;rotatable=0;points=[[0,0.5],[1,0.5]];portConstraint=eastwest;" parent="ENczCvl2RCd71qkHRR7Z-189" vertex="1">
          <mxGeometry y="55" width="140" height="20" as="geometry" />
        </mxCell>
        <mxCell id="ENczCvl2RCd71qkHRR7Z-195" value="toogle_t linked_to_sprite" style="text;html=1;strokeColor=none;fillColor=none;align=center;verticalAlign=middle;spacingLeft=4;spacingRight=4;overflow=hidden;rotatable=0;points=[[0,0.5],[1,0.5]];portConstraint=eastwest;" parent="ENczCvl2RCd71qkHRR7Z-189" vertex="1">
          <mxGeometry y="75" width="140" height="20" as="geometry" />
        </mxCell>
        <mxCell id="6xFeGSdGHfi5s4vFCLi4-72" value="fct_ptr on collision" style="text;html=1;strokeColor=none;fillColor=none;align=center;verticalAlign=middle;spacingLeft=4;spacingRight=4;overflow=hidden;rotatable=0;points=[[0,0.5],[1,0.5]];portConstraint=eastwest;" vertex="1" parent="ENczCvl2RCd71qkHRR7Z-189">
          <mxGeometry y="95" width="140" height="20" as="geometry" />
        </mxCell>
        <mxCell id="ENczCvl2RCd71qkHRR7Z-193" value="&lt;div&gt;sfVector2i position&lt;/div&gt;" style="text;html=1;strokeColor=none;fillColor=none;align=center;verticalAlign=middle;spacingLeft=4;spacingRight=4;overflow=hidden;rotatable=0;points=[[0,0.5],[1,0.5]];portConstraint=eastwest;" parent="ENczCvl2RCd71qkHRR7Z-189" vertex="1">
          <mxGeometry y="115" width="140" height="20" as="geometry" />
        </mxCell>
        <mxCell id="ENczCvl2RCd71qkHRR7Z-194" value="&lt;div&gt;sfVector2i dimension&lt;/div&gt;" style="text;html=1;strokeColor=none;fillColor=none;align=center;verticalAlign=middle;spacingLeft=4;spacingRight=4;overflow=hidden;rotatable=0;points=[[0,0.5],[1,0.5]];portConstraint=eastwest;" parent="ENczCvl2RCd71qkHRR7Z-189" vertex="1">
          <mxGeometry y="135" width="140" height="20" as="geometry" />
        </mxCell>
        <mxCell id="ENczCvl2RCd71qkHRR7Z-196" style="edgeStyle=orthogonalEdgeStyle;rounded=0;orthogonalLoop=1;jettySize=auto;html=1;exitX=1;exitY=0.5;exitDx=0;exitDy=0;entryX=0;entryY=0.232;entryDx=0;entryDy=0;entryPerimeter=0;" parent="1" source="ENczCvl2RCd71qkHRR7Z-188" target="ENczCvl2RCd71qkHRR7Z-189" edge="1">
          <mxGeometry relative="1" as="geometry">
            <mxPoint x="1540" y="-41" as="targetPoint" />
            <Array as="points">
              <mxPoint x="1410" y="-838" />
              <mxPoint x="1410" y="-41" />
            </Array>
          </mxGeometry>
        </mxCell>
        <mxCell id="ENczCvl2RCd71qkHRR7Z-198" value="interactive" style="swimlane;fontStyle=0;align=center;verticalAlign=top;childLayout=stackLayout;horizontal=1;startSize=55;horizontalStack=0;resizeParent=1;resizeParentMax=0;resizeLast=0;collapsible=0;marginBottom=0;html=1;" parent="1" vertex="1">
          <mxGeometry x="1560" y="110" width="140" height="155" as="geometry" />
        </mxCell>
        <mxCell id="ENczCvl2RCd71qkHRR7Z-199" value="toogle_t toogle" style="text;html=1;strokeColor=none;fillColor=none;align=center;verticalAlign=middle;spacingLeft=4;spacingRight=4;overflow=hidden;rotatable=0;points=[[0,0.5],[1,0.5]];portConstraint=eastwest;" parent="ENczCvl2RCd71qkHRR7Z-198" vertex="1">
          <mxGeometry y="55" width="140" height="20" as="geometry" />
        </mxCell>
        <mxCell id="ENczCvl2RCd71qkHRR7Z-200" value="toogle_t clickable" style="text;html=1;strokeColor=none;fillColor=none;align=center;verticalAlign=middle;spacingLeft=4;spacingRight=4;overflow=hidden;rotatable=0;points=[[0,0.5],[1,0.5]];portConstraint=eastwest;" parent="ENczCvl2RCd71qkHRR7Z-198" vertex="1">
          <mxGeometry y="75" width="140" height="20" as="geometry" />
        </mxCell>
        <mxCell id="ENczCvl2RCd71qkHRR7Z-205" value="toogle_t hoverable" style="text;html=1;strokeColor=none;fillColor=none;align=center;verticalAlign=middle;spacingLeft=4;spacingRight=4;overflow=hidden;rotatable=0;points=[[0,0.5],[1,0.5]];portConstraint=eastwest;" parent="ENczCvl2RCd71qkHRR7Z-198" vertex="1">
          <mxGeometry y="95" width="140" height="20" as="geometry" />
        </mxCell>
        <mxCell id="ENczCvl2RCd71qkHRR7Z-201" value="void *click_action" style="text;html=1;strokeColor=none;fillColor=none;align=center;verticalAlign=middle;spacingLeft=4;spacingRight=4;overflow=hidden;rotatable=0;points=[[0,0.5],[1,0.5]];portConstraint=eastwest;" parent="ENczCvl2RCd71qkHRR7Z-198" vertex="1">
          <mxGeometry y="115" width="140" height="20" as="geometry" />
        </mxCell>
        <mxCell id="ENczCvl2RCd71qkHRR7Z-202" value="void *hover_action" style="text;html=1;strokeColor=none;fillColor=none;align=center;verticalAlign=middle;spacingLeft=4;spacingRight=4;overflow=hidden;rotatable=0;points=[[0,0.5],[1,0.5]];portConstraint=eastwest;" parent="ENczCvl2RCd71qkHRR7Z-198" vertex="1">
          <mxGeometry y="135" width="140" height="20" as="geometry" />
        </mxCell>
        <mxCell id="ENczCvl2RCd71qkHRR7Z-204" style="edgeStyle=orthogonalEdgeStyle;rounded=0;orthogonalLoop=1;jettySize=auto;html=1;exitX=1;exitY=0.5;exitDx=0;exitDy=0;entryX=0;entryY=0.129;entryDx=0;entryDy=0;entryPerimeter=0;" parent="1" source="ENczCvl2RCd71qkHRR7Z-197" target="ENczCvl2RCd71qkHRR7Z-198" edge="1">
          <mxGeometry relative="1" as="geometry">
            <mxPoint x="1530" y="149" as="targetPoint" />
            <Array as="points">
              <mxPoint x="1380" y="-818" />
              <mxPoint x="1380" y="130" />
            </Array>
          </mxGeometry>
        </mxCell>
        <mxCell id="UxHBZCjuVZU_OcwK-Dpz-10" value="view" style="swimlane;fontStyle=0;align=center;verticalAlign=top;childLayout=stackLayout;horizontal=1;startSize=55;horizontalStack=0;resizeParent=1;resizeParentMax=0;resizeLast=0;collapsible=0;marginBottom=0;html=1;" parent="1" vertex="1">
          <mxGeometry x="910" y="-200" width="140" height="95" as="geometry" />
        </mxCell>
        <mxCell id="UxHBZCjuVZU_OcwK-Dpz-11" value="sfFloatRect" style="text;html=1;strokeColor=none;fillColor=none;align=center;verticalAlign=middle;spacingLeft=4;spacingRight=4;overflow=hidden;rotatable=0;points=[[0,0.5],[1,0.5]];portConstraint=eastwest;" parent="UxHBZCjuVZU_OcwK-Dpz-10" vertex="1">
          <mxGeometry y="55" width="140" height="20" as="geometry" />
        </mxCell>
        <mxCell id="UxHBZCjuVZU_OcwK-Dpz-12" value="sfView" style="text;html=1;strokeColor=none;fillColor=none;align=center;verticalAlign=middle;spacingLeft=4;spacingRight=4;overflow=hidden;rotatable=0;points=[[0,0.5],[1,0.5]];portConstraint=eastwest;" parent="UxHBZCjuVZU_OcwK-Dpz-10" vertex="1">
          <mxGeometry y="75" width="140" height="20" as="geometry" />
        </mxCell>
        <mxCell id="UxHBZCjuVZU_OcwK-Dpz-17" style="edgeStyle=orthogonalEdgeStyle;rounded=0;orthogonalLoop=1;jettySize=auto;html=1;exitX=1;exitY=0.5;exitDx=0;exitDy=0;entryX=0;entryY=0.211;entryDx=0;entryDy=0;entryPerimeter=0;" parent="1" source="UxHBZCjuVZU_OcwK-Dpz-9" target="UxHBZCjuVZU_OcwK-Dpz-10" edge="1">
          <mxGeometry relative="1" as="geometry">
            <mxPoint x="831" y="-255" as="sourcePoint" />
            <Array as="points">
              <mxPoint x="870" y="-15" />
              <mxPoint x="870" y="-180" />
            </Array>
            <mxPoint x="890" y="-180" as="targetPoint" />
          </mxGeometry>
        </mxCell>
        <mxCell id="6xFeGSdGHfi5s4vFCLi4-5" value="animation" style="swimlane;fontStyle=0;align=center;verticalAlign=top;childLayout=stackLayout;horizontal=1;startSize=55;horizontalStack=0;resizeParent=1;resizeParentMax=0;resizeLast=0;collapsible=0;marginBottom=0;html=1;" vertex="1" parent="1">
          <mxGeometry x="1560" y="300" width="140" height="155" as="geometry" />
        </mxCell>
        <mxCell id="6xFeGSdGHfi5s4vFCLi4-6" value="toogle_t toogle" style="text;html=1;strokeColor=none;fillColor=none;align=center;verticalAlign=middle;spacingLeft=4;spacingRight=4;overflow=hidden;rotatable=0;points=[[0,0.5],[1,0.5]];portConstraint=eastwest;" vertex="1" parent="6xFeGSdGHfi5s4vFCLi4-5">
          <mxGeometry y="55" width="140" height="20" as="geometry" />
        </mxCell>
        <mxCell id="6xFeGSdGHfi5s4vFCLi4-7" value="actual_frame" style="text;html=1;strokeColor=none;fillColor=none;align=center;verticalAlign=middle;spacingLeft=4;spacingRight=4;overflow=hidden;rotatable=0;points=[[0,0.5],[1,0.5]];portConstraint=eastwest;" vertex="1" parent="6xFeGSdGHfi5s4vFCLi4-5">
          <mxGeometry y="75" width="140" height="20" as="geometry" />
        </mxCell>
        <mxCell id="6xFeGSdGHfi5s4vFCLi4-20" value="anim_type" style="text;html=1;strokeColor=none;fillColor=none;align=center;verticalAlign=middle;spacingLeft=4;spacingRight=4;overflow=hidden;rotatable=0;points=[[0,0.5],[1,0.5]];portConstraint=eastwest;" vertex="1" parent="6xFeGSdGHfi5s4vFCLi4-5">
          <mxGeometry y="95" width="140" height="20" as="geometry" />
        </mxCell>
        <mxCell id="6xFeGSdGHfi5s4vFCLi4-21" value="anim_list" style="text;html=1;strokeColor=none;fillColor=none;align=center;verticalAlign=middle;spacingLeft=4;spacingRight=4;overflow=hidden;rotatable=0;points=[[0,0.5],[1,0.5]];portConstraint=eastwest;" vertex="1" parent="6xFeGSdGHfi5s4vFCLi4-5">
          <mxGeometry y="115" width="140" height="20" as="geometry" />
        </mxCell>
        <mxCell id="6xFeGSdGHfi5s4vFCLi4-22" value="actual_anim" style="text;html=1;strokeColor=none;fillColor=none;align=center;verticalAlign=middle;spacingLeft=4;spacingRight=4;overflow=hidden;rotatable=0;points=[[0,0.5],[1,0.5]];portConstraint=eastwest;" vertex="1" parent="6xFeGSdGHfi5s4vFCLi4-5">
          <mxGeometry y="135" width="140" height="20" as="geometry" />
        </mxCell>
        <mxCell id="6xFeGSdGHfi5s4vFCLi4-11" value="anim" style="swimlane;fontStyle=0;align=center;verticalAlign=top;childLayout=stackLayout;horizontal=1;startSize=55;horizontalStack=0;resizeParent=1;resizeParentMax=0;resizeLast=0;collapsible=0;marginBottom=0;html=1;" vertex="1" parent="1">
          <mxGeometry x="1770" y="300" width="140" height="175" as="geometry" />
        </mxCell>
        <mxCell id="6xFeGSdGHfi5s4vFCLi4-12" value="toogle_t toogle" style="text;html=1;strokeColor=none;fillColor=none;align=center;verticalAlign=middle;spacingLeft=4;spacingRight=4;overflow=hidden;rotatable=0;points=[[0,0.5],[1,0.5]];portConstraint=eastwest;" vertex="1" parent="6xFeGSdGHfi5s4vFCLi4-11">
          <mxGeometry y="55" width="140" height="20" as="geometry" />
        </mxCell>
        <mxCell id="6xFeGSdGHfi5s4vFCLi4-13" value="name" style="text;html=1;strokeColor=none;fillColor=none;align=center;verticalAlign=middle;spacingLeft=4;spacingRight=4;overflow=hidden;rotatable=0;points=[[0,0.5],[1,0.5]];portConstraint=eastwest;" vertex="1" parent="6xFeGSdGHfi5s4vFCLi4-11">
          <mxGeometry y="75" width="140" height="20" as="geometry" />
        </mxCell>
        <mxCell id="6xFeGSdGHfi5s4vFCLi4-27" value="frames_count" style="text;html=1;strokeColor=none;fillColor=none;align=center;verticalAlign=middle;spacingLeft=4;spacingRight=4;overflow=hidden;rotatable=0;points=[[0,0.5],[1,0.5]];portConstraint=eastwest;" vertex="1" parent="6xFeGSdGHfi5s4vFCLi4-11">
          <mxGeometry y="95" width="140" height="20" as="geometry" />
        </mxCell>
        <mxCell id="6xFeGSdGHfi5s4vFCLi4-15" value="frames" style="text;html=1;strokeColor=none;fillColor=none;align=center;verticalAlign=middle;spacingLeft=4;spacingRight=4;overflow=hidden;rotatable=0;points=[[0,0.5],[1,0.5]];portConstraint=eastwest;" vertex="1" parent="6xFeGSdGHfi5s4vFCLi4-11">
          <mxGeometry y="115" width="140" height="20" as="geometry" />
        </mxCell>
        <mxCell id="6xFeGSdGHfi5s4vFCLi4-16" value="void *frame_action" style="text;html=1;strokeColor=none;fillColor=none;align=center;verticalAlign=middle;spacingLeft=4;spacingRight=4;overflow=hidden;rotatable=0;points=[[0,0.5],[1,0.5]];portConstraint=eastwest;" vertex="1" parent="6xFeGSdGHfi5s4vFCLi4-11">
          <mxGeometry y="135" width="140" height="20" as="geometry" />
        </mxCell>
        <mxCell id="6xFeGSdGHfi5s4vFCLi4-25" style="edgeStyle=orthogonalEdgeStyle;rounded=0;orthogonalLoop=1;jettySize=auto;html=1;exitX=0;exitY=0.5;exitDx=0;exitDy=0;entryX=0.001;entryY=0.232;entryDx=0;entryDy=0;entryPerimeter=0;" edge="1" parent="6xFeGSdGHfi5s4vFCLi4-11" source="6xFeGSdGHfi5s4vFCLi4-24" target="6xFeGSdGHfi5s4vFCLi4-11">
          <mxGeometry relative="1" as="geometry" />
        </mxCell>
        <mxCell id="6xFeGSdGHfi5s4vFCLi4-24" value="next" style="text;html=1;strokeColor=none;fillColor=none;align=center;verticalAlign=middle;spacingLeft=4;spacingRight=4;overflow=hidden;rotatable=0;points=[[0,0.5],[1,0.5]];portConstraint=eastwest;" vertex="1" parent="6xFeGSdGHfi5s4vFCLi4-11">
          <mxGeometry y="155" width="140" height="20" as="geometry" />
        </mxCell>
        <mxCell id="6xFeGSdGHfi5s4vFCLi4-17" style="edgeStyle=orthogonalEdgeStyle;rounded=0;orthogonalLoop=1;jettySize=auto;html=1;entryX=-0.007;entryY=0.168;entryDx=0;entryDy=0;entryPerimeter=0;" edge="1" parent="1" target="6xFeGSdGHfi5s4vFCLi4-11">
          <mxGeometry relative="1" as="geometry">
            <mxPoint x="1700" y="440" as="sourcePoint" />
            <Array as="points">
              <mxPoint x="1700" y="440" />
              <mxPoint x="1735" y="440" />
              <mxPoint x="1735" y="329" />
            </Array>
          </mxGeometry>
        </mxCell>
        <mxCell id="6xFeGSdGHfi5s4vFCLi4-19" style="edgeStyle=orthogonalEdgeStyle;rounded=0;orthogonalLoop=1;jettySize=auto;html=1;exitX=1;exitY=0.5;exitDx=0;exitDy=0;entryX=-0.016;entryY=0.218;entryDx=0;entryDy=0;entryPerimeter=0;" edge="1" parent="1" source="6xFeGSdGHfi5s4vFCLi4-18" target="6xFeGSdGHfi5s4vFCLi4-5">
          <mxGeometry relative="1" as="geometry">
            <mxPoint x="1530" y="544" as="targetPoint" />
            <Array as="points">
              <mxPoint x="1360" y="-798" />
              <mxPoint x="1360" y="334" />
            </Array>
          </mxGeometry>
        </mxCell>
        <mxCell id="6xFeGSdGHfi5s4vFCLi4-23" style="edgeStyle=orthogonalEdgeStyle;rounded=0;orthogonalLoop=1;jettySize=auto;html=1;exitX=1;exitY=0.5;exitDx=0;exitDy=0;entryX=-0.004;entryY=0.17;entryDx=0;entryDy=0;entryPerimeter=0;" edge="1" parent="1" source="6xFeGSdGHfi5s4vFCLi4-22" target="6xFeGSdGHfi5s4vFCLi4-11">
          <mxGeometry relative="1" as="geometry">
            <Array as="points">
              <mxPoint x="1700" y="420" />
              <mxPoint x="1735" y="420" />
              <mxPoint x="1735" y="330" />
            </Array>
          </mxGeometry>
        </mxCell>
        <mxCell id="6xFeGSdGHfi5s4vFCLi4-28" value="struct" style="swimlane;fontStyle=0;align=center;verticalAlign=top;childLayout=stackLayout;horizontal=1;startSize=55;horizontalStack=0;resizeParent=1;resizeParentMax=0;resizeLast=0;collapsible=0;marginBottom=0;html=1;" vertex="1" parent="1">
          <mxGeometry x="1980" y="300" width="140" height="115" as="geometry" />
        </mxCell>
        <mxCell id="6xFeGSdGHfi5s4vFCLi4-35" value="&lt;div&gt;sfIntRect crop&lt;/div&gt;" style="text;html=1;strokeColor=none;fillColor=none;align=center;verticalAlign=middle;spacingLeft=4;spacingRight=4;overflow=hidden;rotatable=0;points=[[0,0.5],[1,0.5]];portConstraint=eastwest;" vertex="1" parent="6xFeGSdGHfi5s4vFCLi4-28">
          <mxGeometry y="55" width="140" height="20" as="geometry" />
        </mxCell>
        <mxCell id="6xFeGSdGHfi5s4vFCLi4-36" value="trigger" style="text;html=1;strokeColor=none;fillColor=none;align=center;verticalAlign=middle;spacingLeft=4;spacingRight=4;overflow=hidden;rotatable=0;points=[[0,0.5],[1,0.5]];portConstraint=eastwest;" vertex="1" parent="6xFeGSdGHfi5s4vFCLi4-28">
          <mxGeometry y="75" width="140" height="20" as="geometry" />
        </mxCell>
        <mxCell id="6xFeGSdGHfi5s4vFCLi4-71" value="actual time" style="text;html=1;strokeColor=none;fillColor=none;align=center;verticalAlign=middle;spacingLeft=4;spacingRight=4;overflow=hidden;rotatable=0;points=[[0,0.5],[1,0.5]];portConstraint=eastwest;" vertex="1" parent="6xFeGSdGHfi5s4vFCLi4-28">
          <mxGeometry y="95" width="140" height="20" as="geometry" />
        </mxCell>
        <mxCell id="6xFeGSdGHfi5s4vFCLi4-37" style="edgeStyle=orthogonalEdgeStyle;rounded=0;orthogonalLoop=1;jettySize=auto;html=1;exitX=1;exitY=0.5;exitDx=0;exitDy=0;entryX=0;entryY=0.25;entryDx=0;entryDy=0;" edge="1" parent="1" source="6xFeGSdGHfi5s4vFCLi4-15" target="6xFeGSdGHfi5s4vFCLi4-28">
          <mxGeometry relative="1" as="geometry" />
        </mxCell>
        <mxCell id="6xFeGSdGHfi5s4vFCLi4-38" value="data" style="swimlane;fontStyle=0;align=center;verticalAlign=top;childLayout=stackLayout;horizontal=1;startSize=55;horizontalStack=0;resizeParent=1;resizeParentMax=0;resizeLast=0;collapsible=0;marginBottom=0;html=1;" vertex="1" parent="1">
          <mxGeometry x="1760" y="-280" width="140" height="95" as="geometry" />
        </mxCell>
        <mxCell id="6xFeGSdGHfi5s4vFCLi4-40" value="void *data" style="text;html=1;strokeColor=none;fillColor=none;align=center;verticalAlign=middle;spacingLeft=4;spacingRight=4;overflow=hidden;rotatable=0;points=[[0,0.5],[1,0.5]];portConstraint=eastwest;" vertex="1" parent="6xFeGSdGHfi5s4vFCLi4-38">
          <mxGeometry y="55" width="140" height="20" as="geometry" />
        </mxCell>
        <mxCell id="6xFeGSdGHfi5s4vFCLi4-42" style="edgeStyle=orthogonalEdgeStyle;rounded=0;orthogonalLoop=1;jettySize=auto;html=1;exitX=0;exitY=0.5;exitDx=0;exitDy=0;entryX=0;entryY=0.277;entryDx=0;entryDy=0;entryPerimeter=0;" edge="1" parent="6xFeGSdGHfi5s4vFCLi4-38" source="6xFeGSdGHfi5s4vFCLi4-43" target="6xFeGSdGHfi5s4vFCLi4-38">
          <mxGeometry relative="1" as="geometry" />
        </mxCell>
        <mxCell id="6xFeGSdGHfi5s4vFCLi4-43" value="Next Action Trigger" style="text;html=1;strokeColor=none;fillColor=none;align=center;verticalAlign=middle;spacingLeft=4;spacingRight=4;overflow=hidden;rotatable=0;points=[[0,0.5],[1,0.5]];portConstraint=eastwest;" vertex="1" parent="6xFeGSdGHfi5s4vFCLi4-38">
          <mxGeometry y="75" width="140" height="20" as="geometry" />
        </mxCell>
        <mxCell id="6xFeGSdGHfi5s4vFCLi4-50" style="edgeStyle=orthogonalEdgeStyle;rounded=0;orthogonalLoop=1;jettySize=auto;html=1;exitX=1;exitY=0.5;exitDx=0;exitDy=0;entryX=0;entryY=0.116;entryDx=0;entryDy=0;entryPerimeter=0;" edge="1" parent="1" source="ENczCvl2RCd71qkHRR7Z-69" target="6xFeGSdGHfi5s4vFCLi4-38">
          <mxGeometry relative="1" as="geometry" />
        </mxCell>
        <mxCell id="6xFeGSdGHfi5s4vFCLi4-56" value="cursor" style="swimlane;fontStyle=0;align=center;verticalAlign=top;childLayout=stackLayout;horizontal=1;startSize=55;horizontalStack=0;resizeParent=1;resizeParentMax=0;resizeLast=0;collapsible=0;marginBottom=0;html=1;" vertex="1" parent="1">
          <mxGeometry x="690" y="-453" width="140" height="123" as="geometry" />
        </mxCell>
        <mxCell id="6xFeGSdGHfi5s4vFCLi4-57" value="sfCursor" style="text;html=1;strokeColor=none;fillColor=none;align=center;verticalAlign=middle;spacingLeft=4;spacingRight=4;overflow=hidden;rotatable=0;points=[[0,0.5],[1,0.5]];portConstraint=eastwest;" vertex="1" parent="6xFeGSdGHfi5s4vFCLi4-56">
          <mxGeometry y="55" width="140" height="20" as="geometry" />
        </mxCell>
        <mxCell id="6xFeGSdGHfi5s4vFCLi4-58" value="sfVector2i position" style="text;html=1;strokeColor=none;fillColor=none;align=center;verticalAlign=middle;spacingLeft=4;spacingRight=4;overflow=hidden;rotatable=0;points=[[0,0.5],[1,0.5]];portConstraint=eastwest;" vertex="1" parent="6xFeGSdGHfi5s4vFCLi4-56">
          <mxGeometry y="75" width="140" height="20" as="geometry" />
        </mxCell>
        <mxCell id="6xFeGSdGHfi5s4vFCLi4-62" value="bool is_clicking" style="text;html=1;strokeColor=none;fillColor=none;align=center;verticalAlign=middle;spacingLeft=4;spacingRight=4;overflow=hidden;rotatable=0;points=[[0,0.5],[1,0.5]];portConstraint=eastwest;" vertex="1" parent="6xFeGSdGHfi5s4vFCLi4-56">
          <mxGeometry y="95" width="140" height="20" as="geometry" />
        </mxCell>
        <mxCell id="6xFeGSdGHfi5s4vFCLi4-63" value="" style="line;strokeWidth=1;fillColor=none;align=left;verticalAlign=middle;spacingTop=-1;spacingLeft=3;spacingRight=3;rotatable=0;labelPosition=right;points=[];portConstraint=eastwest;" vertex="1" parent="6xFeGSdGHfi5s4vFCLi4-56">
          <mxGeometry y="115" width="140" height="8" as="geometry" />
        </mxCell>
        <mxCell id="6xFeGSdGHfi5s4vFCLi4-64" style="edgeStyle=orthogonalEdgeStyle;rounded=0;orthogonalLoop=1;jettySize=auto;html=1;exitX=1;exitY=0.5;exitDx=0;exitDy=0;entryX=-0.006;entryY=0.285;entryDx=0;entryDy=0;entryPerimeter=0;" edge="1" parent="1" source="6xFeGSdGHfi5s4vFCLi4-55" target="6xFeGSdGHfi5s4vFCLi4-56">
          <mxGeometry relative="1" as="geometry" />
        </mxCell>
        <mxCell id="6xFeGSdGHfi5s4vFCLi4-66" style="edgeStyle=orthogonalEdgeStyle;rounded=0;orthogonalLoop=1;jettySize=auto;html=1;exitX=1;exitY=0.5;exitDx=0;exitDy=0;entryX=0;entryY=0.316;entryDx=0;entryDy=0;entryPerimeter=0;" edge="1" parent="1" source="ENczCvl2RCd71qkHRR7Z-36" target="ENczCvl2RCd71qkHRR7Z-79">
          <mxGeometry relative="1" as="geometry" />
        </mxCell>
        <mxCell id="6xFeGSdGHfi5s4vFCLi4-67" style="edgeStyle=orthogonalEdgeStyle;rounded=0;orthogonalLoop=1;jettySize=auto;html=1;exitX=1;exitY=0.5;exitDx=0;exitDy=0;entryX=-0.018;entryY=0.14;entryDx=0;entryDy=0;entryPerimeter=0;" edge="1" parent="1" source="ENczCvl2RCd71qkHRR7Z-31" target="ENczCvl2RCd71qkHRR7Z-85">
          <mxGeometry relative="1" as="geometry" />
        </mxCell>
        <mxCell id="6xFeGSdGHfi5s4vFCLi4-79" value="Text_t" style="swimlane;fontStyle=0;align=center;verticalAlign=top;childLayout=stackLayout;horizontal=1;startSize=55;horizontalStack=0;resizeParent=1;resizeParentMax=0;resizeLast=0;collapsible=0;marginBottom=0;html=1;" vertex="1" parent="1">
          <mxGeometry x="1760" y="-1015" width="140" height="155" as="geometry" />
        </mxCell>
        <mxCell id="6xFeGSdGHfi5s4vFCLi4-80" value="toogle_t toogle" style="text;html=1;strokeColor=none;fillColor=none;align=center;verticalAlign=middle;spacingLeft=4;spacingRight=4;overflow=hidden;rotatable=0;points=[[0,0.5],[1,0.5]];portConstraint=eastwest;" vertex="1" parent="6xFeGSdGHfi5s4vFCLi4-79">
          <mxGeometry y="55" width="140" height="20" as="geometry" />
        </mxCell>
        <mxCell id="6xFeGSdGHfi5s4vFCLi4-81" value="sfVector2f position" style="text;html=1;strokeColor=none;fillColor=none;align=center;verticalAlign=middle;spacingLeft=4;spacingRight=4;overflow=hidden;rotatable=0;points=[[0,0.5],[1,0.5]];portConstraint=eastwest;" vertex="1" parent="6xFeGSdGHfi5s4vFCLi4-79">
          <mxGeometry y="75" width="140" height="20" as="geometry" />
        </mxCell>
        <mxCell id="6xFeGSdGHfi5s4vFCLi4-86" value="sfText *text" style="text;html=1;strokeColor=none;fillColor=none;align=center;verticalAlign=middle;spacingLeft=4;spacingRight=4;overflow=hidden;rotatable=0;points=[[0,0.5],[1,0.5]];portConstraint=eastwest;" vertex="1" parent="6xFeGSdGHfi5s4vFCLi4-79">
          <mxGeometry y="95" width="140" height="20" as="geometry" />
        </mxCell>
        <mxCell id="6xFeGSdGHfi5s4vFCLi4-82" value="sfFont *font" style="text;html=1;strokeColor=none;fillColor=none;align=center;verticalAlign=middle;spacingLeft=4;spacingRight=4;overflow=hidden;rotatable=0;points=[[0,0.5],[1,0.5]];portConstraint=eastwest;" vertex="1" parent="6xFeGSdGHfi5s4vFCLi4-79">
          <mxGeometry y="115" width="140" height="20" as="geometry" />
        </mxCell>
        <mxCell id="6xFeGSdGHfi5s4vFCLi4-83" value="char *string" style="text;html=1;strokeColor=none;fillColor=none;align=center;verticalAlign=middle;spacingLeft=4;spacingRight=4;overflow=hidden;rotatable=0;points=[[0,0.5],[1,0.5]];portConstraint=eastwest;" vertex="1" parent="6xFeGSdGHfi5s4vFCLi4-79">
          <mxGeometry y="135" width="140" height="20" as="geometry" />
        </mxCell>
        <mxCell id="6xFeGSdGHfi5s4vFCLi4-87" style="edgeStyle=orthogonalEdgeStyle;rounded=0;orthogonalLoop=1;jettySize=auto;html=1;exitX=1;exitY=0.5;exitDx=0;exitDy=0;entryX=0.012;entryY=0.156;entryDx=0;entryDy=0;entryPerimeter=0;" edge="1" parent="1" source="ENczCvl2RCd71qkHRR7Z-99" target="6xFeGSdGHfi5s4vFCLi4-79">
          <mxGeometry relative="1" as="geometry" />
        </mxCell>
      </root>
    </mxGraphModel>
  </diagram>
  <diagram id="grr5bmPfxmvwKSn_W83m" name="general flowchart">
    <mxGraphModel dx="1422" dy="898" grid="1" gridSize="10" guides="1" tooltips="1" connect="1" arrows="1" fold="1" page="1" pageScale="1" pageWidth="850" pageHeight="1100" math="0" shadow="0">
      <root>
        <mxCell id="kmd6dC2aGOcEopKr4PfT-0" />
        <mxCell id="kmd6dC2aGOcEopKr4PfT-1" parent="kmd6dC2aGOcEopKr4PfT-0" />
      </root>
    </mxGraphModel>
  </diagram>
  <diagram id="MS1s3f3arZEC66dBVRff" name="Game loop flowchart">
    <mxGraphModel dx="1422" dy="898" grid="1" gridSize="10" guides="1" tooltips="1" connect="1" arrows="1" fold="1" page="1" pageScale="1" pageWidth="850" pageHeight="1100" math="0" shadow="0">
      <root>
        <mxCell id="hbUjzmD8z3oPdm5FVAMq-0" />
        <mxCell id="hbUjzmD8z3oPdm5FVAMq-1" parent="hbUjzmD8z3oPdm5FVAMq-0" />
        <mxCell id="hbUjzmD8z3oPdm5FVAMq-8" style="edgeStyle=orthogonalEdgeStyle;rounded=0;orthogonalLoop=1;jettySize=auto;html=1;entryX=0;entryY=0.5;entryDx=0;entryDy=0;" edge="1" parent="hbUjzmD8z3oPdm5FVAMq-1" source="hbUjzmD8z3oPdm5FVAMq-2" target="hbUjzmD8z3oPdm5FVAMq-7">
          <mxGeometry relative="1" as="geometry" />
        </mxCell>
        <mxCell id="hbUjzmD8z3oPdm5FVAMq-2" value="Start" style="strokeWidth=2;html=1;shape=mxgraph.flowchart.loop_limit;whiteSpace=wrap;fillColor=#d5e8d4;strokeColor=#82b366;" vertex="1" parent="hbUjzmD8z3oPdm5FVAMq-1">
          <mxGeometry x="80" y="40" width="100" height="60" as="geometry" />
        </mxCell>
        <mxCell id="hbUjzmD8z3oPdm5FVAMq-9" style="edgeStyle=orthogonalEdgeStyle;rounded=0;orthogonalLoop=1;jettySize=auto;html=1;exitX=1;exitY=0.5;exitDx=0;exitDy=0;exitPerimeter=0;entryX=0.435;entryY=0.008;entryDx=0;entryDy=0;entryPerimeter=0;" edge="1" parent="hbUjzmD8z3oPdm5FVAMq-1" source="hbUjzmD8z3oPdm5FVAMq-3" target="hbUjzmD8z3oPdm5FVAMq-2">
          <mxGeometry relative="1" as="geometry">
            <Array as="points">
              <mxPoint x="20" y="1020" />
              <mxPoint x="20" y="20" />
              <mxPoint x="123" y="20" />
            </Array>
          </mxGeometry>
        </mxCell>
        <mxCell id="hbUjzmD8z3oPdm5FVAMq-3" value="&lt;div&gt;Stop&lt;/div&gt;" style="strokeWidth=2;html=1;shape=mxgraph.flowchart.loop_limit;whiteSpace=wrap;rotation=-180;fillColor=#f8cecc;strokeColor=#b85450;" vertex="1" parent="hbUjzmD8z3oPdm5FVAMq-1">
          <mxGeometry x="340" y="990" width="100" height="60" as="geometry" />
        </mxCell>
        <mxCell id="hbUjzmD8z3oPdm5FVAMq-14" style="edgeStyle=orthogonalEdgeStyle;rounded=0;orthogonalLoop=1;jettySize=auto;html=1;exitX=0.5;exitY=1;exitDx=0;exitDy=0;" edge="1" parent="hbUjzmD8z3oPdm5FVAMq-1" source="hbUjzmD8z3oPdm5FVAMq-7">
          <mxGeometry relative="1" as="geometry">
            <mxPoint x="324" y="320" as="targetPoint" />
          </mxGeometry>
        </mxCell>
        <mxCell id="hbUjzmD8z3oPdm5FVAMq-7" value="Event loop" style="rounded=1;whiteSpace=wrap;html=1;absoluteArcSize=1;arcSize=14;strokeWidth=2;" vertex="1" parent="hbUjzmD8z3oPdm5FVAMq-1">
          <mxGeometry x="170" y="140" width="310" height="100" as="geometry" />
        </mxCell>
        <mxCell id="hbUjzmD8z3oPdm5FVAMq-10" value="Collisions" style="rounded=1;whiteSpace=wrap;html=1;absoluteArcSize=1;arcSize=14;strokeWidth=2;" vertex="1" parent="hbUjzmD8z3oPdm5FVAMq-1">
          <mxGeometry x="370" y="150" width="90" height="80" as="geometry" />
        </mxCell>
        <mxCell id="hbUjzmD8z3oPdm5FVAMq-12" value="Inputs" style="rounded=1;whiteSpace=wrap;html=1;absoluteArcSize=1;arcSize=14;strokeWidth=2;" vertex="1" parent="hbUjzmD8z3oPdm5FVAMq-1">
          <mxGeometry x="190" y="150" width="90" height="80" as="geometry" />
        </mxCell>
        <mxCell id="Q3QK2_LvBdrzI19mNxof-2" style="edgeStyle=orthogonalEdgeStyle;rounded=0;orthogonalLoop=1;jettySize=auto;html=1;exitX=0.25;exitY=1;exitDx=0;exitDy=0;entryX=0;entryY=0.5;entryDx=0;entryDy=0;" edge="1" parent="hbUjzmD8z3oPdm5FVAMq-1" source="Q3QK2_LvBdrzI19mNxof-0" target="Q3QK2_LvBdrzI19mNxof-1">
          <mxGeometry relative="1" as="geometry" />
        </mxCell>
        <mxCell id="Q3QK2_LvBdrzI19mNxof-0" value="clock update" style="rounded=1;whiteSpace=wrap;html=1;absoluteArcSize=1;arcSize=14;strokeWidth=2;" vertex="1" parent="hbUjzmD8z3oPdm5FVAMq-1">
          <mxGeometry x="300" y="320" width="100" height="100" as="geometry" />
        </mxCell>
        <mxCell id="Q3QK2_LvBdrzI19mNxof-3" style="edgeStyle=orthogonalEdgeStyle;rounded=0;orthogonalLoop=1;jettySize=auto;html=1;exitX=0.5;exitY=1;exitDx=0;exitDy=0;entryX=0.39;entryY=1.05;entryDx=0;entryDy=0;entryPerimeter=0;" edge="1" parent="hbUjzmD8z3oPdm5FVAMq-1" source="Q3QK2_LvBdrzI19mNxof-1" target="hbUjzmD8z3oPdm5FVAMq-3">
          <mxGeometry relative="1" as="geometry" />
        </mxCell>
        <mxCell id="Q3QK2_LvBdrzI19mNxof-1" value="frame update" style="rounded=1;whiteSpace=wrap;html=1;absoluteArcSize=1;arcSize=14;strokeWidth=2;" vertex="1" parent="hbUjzmD8z3oPdm5FVAMq-1">
          <mxGeometry x="350" y="470" width="100" height="100" as="geometry" />
        </mxCell>
      </root>
    </mxGraphModel>
  </diagram>
  <diagram id="RQ_jlCXBOt8PlC9zjh_O" name="Event loop flowchart">
    <mxGraphModel dx="1673" dy="1056" grid="1" gridSize="10" guides="1" tooltips="1" connect="1" arrows="1" fold="1" page="1" pageScale="1" pageWidth="850" pageHeight="1100" math="0" shadow="0">
      <root>
        <mxCell id="Kp_8Mg77ZKYcEHjNL0ob-0" />
        <mxCell id="Kp_8Mg77ZKYcEHjNL0ob-1" parent="Kp_8Mg77ZKYcEHjNL0ob-0" />
        <mxCell id="h40Ecasrp5_B0xSBpPIz-0" value="Start" style="strokeWidth=2;html=1;shape=mxgraph.flowchart.loop_limit;whiteSpace=wrap;fillColor=#d5e8d4;strokeColor=#82b366;" vertex="1" parent="Kp_8Mg77ZKYcEHjNL0ob-1">
          <mxGeometry x="80" y="40" width="100" height="60" as="geometry" />
        </mxCell>
        <mxCell id="h40Ecasrp5_B0xSBpPIz-1" style="edgeStyle=orthogonalEdgeStyle;rounded=0;orthogonalLoop=1;jettySize=auto;html=1;exitX=1;exitY=0.5;exitDx=0;exitDy=0;exitPerimeter=0;entryX=0.435;entryY=0.008;entryDx=0;entryDy=0;entryPerimeter=0;" edge="1" parent="Kp_8Mg77ZKYcEHjNL0ob-1" source="h40Ecasrp5_B0xSBpPIz-2" target="h40Ecasrp5_B0xSBpPIz-0">
          <mxGeometry relative="1" as="geometry">
            <Array as="points">
              <mxPoint x="20" y="1020" />
              <mxPoint x="20" y="20" />
              <mxPoint x="123" y="20" />
            </Array>
          </mxGeometry>
        </mxCell>
        <mxCell id="h40Ecasrp5_B0xSBpPIz-2" value="&lt;div&gt;Stop&lt;/div&gt;" style="strokeWidth=2;html=1;shape=mxgraph.flowchart.loop_limit;whiteSpace=wrap;rotation=-180;fillColor=#f8cecc;strokeColor=#b85450;" vertex="1" parent="Kp_8Mg77ZKYcEHjNL0ob-1">
          <mxGeometry x="340" y="990" width="100" height="60" as="geometry" />
        </mxCell>
      </root>
    </mxGraphModel>
  </diagram>
  <diagram id="LqF9TxPLVp1tB-x4JLMR" name="collision flowchart">
    <mxGraphModel dx="1673" dy="2156" grid="1" gridSize="10" guides="1" tooltips="1" connect="1" arrows="1" fold="1" page="1" pageScale="1" pageWidth="850" pageHeight="1100" math="0" shadow="0">
      <root>
        <mxCell id="7NN_S3zfGiUw_4aNoLyz-0" />
        <mxCell id="7NN_S3zfGiUw_4aNoLyz-1" parent="7NN_S3zfGiUw_4aNoLyz-0" />
        <mxCell id="fGSIY8M6xkT4DSkKSk-A-31" style="edgeStyle=orthogonalEdgeStyle;rounded=0;orthogonalLoop=1;jettySize=auto;html=1;exitX=0.5;exitY=1;exitDx=0;exitDy=0;exitPerimeter=0;entryX=0.5;entryY=0;entryDx=0;entryDy=0;entryPerimeter=0;" edge="1" parent="7NN_S3zfGiUw_4aNoLyz-1" source="gmf9JilAnnpWwHfG6ip6-0" target="fGSIY8M6xkT4DSkKSk-A-1">
          <mxGeometry relative="1" as="geometry" />
        </mxCell>
        <mxCell id="gmf9JilAnnpWwHfG6ip6-0" value="Start" style="strokeWidth=2;html=1;shape=mxgraph.flowchart.loop_limit;whiteSpace=wrap;fillColor=#d5e8d4;strokeColor=#82b366;" vertex="1" parent="7NN_S3zfGiUw_4aNoLyz-1">
          <mxGeometry x="100" y="10" width="100" height="60" as="geometry" />
        </mxCell>
        <mxCell id="gmf9JilAnnpWwHfG6ip6-1" style="edgeStyle=orthogonalEdgeStyle;rounded=0;orthogonalLoop=1;jettySize=auto;html=1;exitX=1;exitY=0.5;exitDx=0;exitDy=0;exitPerimeter=0;entryX=0.435;entryY=0.008;entryDx=0;entryDy=0;entryPerimeter=0;" edge="1" source="gmf9JilAnnpWwHfG6ip6-2" target="gmf9JilAnnpWwHfG6ip6-0" parent="7NN_S3zfGiUw_4aNoLyz-1">
          <mxGeometry relative="1" as="geometry">
            <Array as="points">
              <mxPoint x="40" y="990" />
              <mxPoint x="40" y="-10" />
              <mxPoint x="143" y="-10" />
            </Array>
          </mxGeometry>
        </mxCell>
        <mxCell id="gmf9JilAnnpWwHfG6ip6-2" value="&lt;div&gt;Stop&lt;/div&gt;" style="strokeWidth=2;html=1;shape=mxgraph.flowchart.loop_limit;whiteSpace=wrap;rotation=-180;fillColor=#f8cecc;strokeColor=#b85450;" vertex="1" parent="7NN_S3zfGiUw_4aNoLyz-1">
          <mxGeometry x="360" y="960" width="100" height="60" as="geometry" />
        </mxCell>
        <mxCell id="fGSIY8M6xkT4DSkKSk-A-4" style="edgeStyle=orthogonalEdgeStyle;rounded=0;orthogonalLoop=1;jettySize=auto;html=1;exitX=0.5;exitY=1;exitDx=0;exitDy=0;exitPerimeter=0;entryX=1;entryY=1;entryDx=0;entryDy=0;entryPerimeter=0;" edge="1" parent="7NN_S3zfGiUw_4aNoLyz-1" source="lJhW1D2s9Eiziv6Ie3FB-0" target="fGSIY8M6xkT4DSkKSk-A-0">
          <mxGeometry relative="1" as="geometry" />
        </mxCell>
        <mxCell id="fGSIY8M6xkT4DSkKSk-A-5" style="edgeStyle=orthogonalEdgeStyle;rounded=0;orthogonalLoop=1;jettySize=auto;html=1;exitX=1;exitY=0.5;exitDx=0;exitDy=0;exitPerimeter=0;" edge="1" parent="7NN_S3zfGiUw_4aNoLyz-1" source="lJhW1D2s9Eiziv6Ie3FB-0">
          <mxGeometry relative="1" as="geometry">
            <mxPoint x="600" y="550" as="targetPoint" />
          </mxGeometry>
        </mxCell>
        <mxCell id="lJhW1D2s9Eiziv6Ie3FB-0" value="Check hitbox between two entities" style="strokeWidth=2;html=1;shape=mxgraph.flowchart.delay;whiteSpace=wrap;" vertex="1" parent="7NN_S3zfGiUw_4aNoLyz-1">
          <mxGeometry x="270" y="260" width="190" height="60" as="geometry" />
        </mxCell>
        <mxCell id="fGSIY8M6xkT4DSkKSk-A-0" value="" style="strokeWidth=2;html=1;shape=mxgraph.flowchart.annotation_1;align=left;pointerEvents=1;" vertex="1" parent="7NN_S3zfGiUw_4aNoLyz-1">
          <mxGeometry x="220" y="200" width="50" height="250" as="geometry" />
        </mxCell>
        <mxCell id="fGSIY8M6xkT4DSkKSk-A-23" style="edgeStyle=orthogonalEdgeStyle;rounded=0;orthogonalLoop=1;jettySize=auto;html=1;exitX=0.5;exitY=1;exitDx=0;exitDy=0;exitPerimeter=0;entryX=0.5;entryY=1;entryDx=0;entryDy=0;entryPerimeter=0;" edge="1" parent="7NN_S3zfGiUw_4aNoLyz-1" source="fGSIY8M6xkT4DSkKSk-A-1" target="gmf9JilAnnpWwHfG6ip6-2">
          <mxGeometry relative="1" as="geometry">
            <Array as="points">
              <mxPoint x="215" y="870" />
              <mxPoint x="410" y="870" />
            </Array>
          </mxGeometry>
        </mxCell>
        <mxCell id="fGSIY8M6xkT4DSkKSk-A-1" value="" style="strokeWidth=2;html=1;shape=mxgraph.flowchart.annotation_1;align=left;pointerEvents=1;" vertex="1" parent="7NN_S3zfGiUw_4aNoLyz-1">
          <mxGeometry x="190" y="170" width="50" height="300" as="geometry" />
        </mxCell>
        <mxCell id="fGSIY8M6xkT4DSkKSk-A-2" value="Foreach entity" style="text;html=1;align=center;verticalAlign=middle;resizable=0;points=[];autosize=1;" vertex="1" parent="7NN_S3zfGiUw_4aNoLyz-1">
          <mxGeometry x="250" y="160" width="90" height="20" as="geometry" />
        </mxCell>
        <mxCell id="fGSIY8M6xkT4DSkKSk-A-3" value="Foreach next entities" style="text;html=1;align=center;verticalAlign=middle;resizable=0;points=[];autosize=1;" vertex="1" parent="7NN_S3zfGiUw_4aNoLyz-1">
          <mxGeometry x="280" y="190" width="130" height="20" as="geometry" />
        </mxCell>
        <mxCell id="fGSIY8M6xkT4DSkKSk-A-22" style="edgeStyle=orthogonalEdgeStyle;rounded=0;orthogonalLoop=1;jettySize=auto;html=1;exitX=0.5;exitY=1;exitDx=0;exitDy=0;entryX=1;entryY=1;entryDx=0;entryDy=0;entryPerimeter=0;" edge="1" parent="7NN_S3zfGiUw_4aNoLyz-1" source="fGSIY8M6xkT4DSkKSk-A-6" target="fGSIY8M6xkT4DSkKSk-A-0">
          <mxGeometry relative="1" as="geometry" />
        </mxCell>
        <mxCell id="fGSIY8M6xkT4DSkKSk-A-6" value="&lt;div&gt;Collision between theses two entities&lt;/div&gt;&lt;div&gt;&lt;br&gt;&lt;/div&gt;&lt;div&gt;&lt;br&gt;&lt;/div&gt;&lt;div&gt;&lt;br&gt;&lt;/div&gt;&lt;div&gt;&lt;br&gt;&lt;/div&gt;&lt;div&gt;&lt;br&gt;&lt;/div&gt;&lt;div&gt;&lt;br&gt;&lt;/div&gt;&lt;div&gt;&lt;br&gt;&lt;/div&gt;&lt;div&gt;&lt;br&gt;&lt;/div&gt;" style="rounded=1;whiteSpace=wrap;html=1;absoluteArcSize=1;arcSize=14;strokeWidth=2;" vertex="1" parent="7NN_S3zfGiUw_4aNoLyz-1">
          <mxGeometry x="290" y="550" width="530" height="230" as="geometry" />
        </mxCell>
        <mxCell id="fGSIY8M6xkT4DSkKSk-A-7" value="&lt;div&gt;A&lt;/div&gt;&lt;div&gt;&lt;br&gt;&lt;/div&gt;&lt;div&gt;&lt;br&gt;&lt;/div&gt;&lt;div&gt;&lt;br&gt;&lt;/div&gt;&lt;div&gt;&lt;br&gt;&lt;/div&gt;&lt;div&gt;&lt;br&gt;&lt;/div&gt;&lt;div&gt;&lt;br&gt;&lt;/div&gt;" style="rounded=1;whiteSpace=wrap;html=1;absoluteArcSize=1;arcSize=14;strokeWidth=2;" vertex="1" parent="7NN_S3zfGiUw_4aNoLyz-1">
          <mxGeometry x="305" y="570" width="145" height="190" as="geometry" />
        </mxCell>
        <mxCell id="fGSIY8M6xkT4DSkKSk-A-9" value="&lt;div&gt;No&lt;/div&gt;" style="text;html=1;align=center;verticalAlign=middle;resizable=0;points=[];autosize=1;" vertex="1" parent="7NN_S3zfGiUw_4aNoLyz-1">
          <mxGeometry x="365" y="330" width="30" height="20" as="geometry" />
        </mxCell>
        <mxCell id="fGSIY8M6xkT4DSkKSk-A-10" value="Yes" style="text;html=1;align=center;verticalAlign=middle;resizable=0;points=[];autosize=1;" vertex="1" parent="7NN_S3zfGiUw_4aNoLyz-1">
          <mxGeometry x="460" y="260" width="40" height="20" as="geometry" />
        </mxCell>
        <mxCell id="fGSIY8M6xkT4DSkKSk-A-13" value="" style="verticalLabelPosition=bottom;verticalAlign=top;html=1;shape=card;whiteSpace=wrap;size=20;arcSize=12;" vertex="1" parent="7NN_S3zfGiUw_4aNoLyz-1">
          <mxGeometry x="330" y="690" width="100" height="60" as="geometry" />
        </mxCell>
        <mxCell id="fGSIY8M6xkT4DSkKSk-A-15" value="On collision" style="text;html=1;strokeColor=none;fillColor=none;align=center;verticalAlign=middle;whiteSpace=wrap;rounded=0;" vertex="1" parent="7NN_S3zfGiUw_4aNoLyz-1">
          <mxGeometry x="360" y="710" width="40" height="20" as="geometry" />
        </mxCell>
        <mxCell id="fGSIY8M6xkT4DSkKSk-A-29" style="edgeStyle=orthogonalEdgeStyle;rounded=0;orthogonalLoop=1;jettySize=auto;html=1;entryX=0.547;entryY=0.007;entryDx=0;entryDy=0;entryPerimeter=0;exitX=-0.002;exitY=0.417;exitDx=0;exitDy=0;exitPerimeter=0;" edge="1" parent="7NN_S3zfGiUw_4aNoLyz-1" source="fGSIY8M6xkT4DSkKSk-A-24" target="fGSIY8M6xkT4DSkKSk-A-13">
          <mxGeometry relative="1" as="geometry">
            <mxPoint x="650" y="650" as="sourcePoint" />
            <Array as="points">
              <mxPoint x="385" y="649" />
            </Array>
          </mxGeometry>
        </mxCell>
        <mxCell id="fGSIY8M6xkT4DSkKSk-A-24" value="&lt;div&gt;B&lt;br&gt;&lt;/div&gt;&lt;div&gt;&lt;br&gt;&lt;/div&gt;&lt;div&gt;&lt;br&gt;&lt;/div&gt;&lt;div&gt;&lt;br&gt;&lt;/div&gt;&lt;div&gt;&lt;br&gt;&lt;/div&gt;&lt;div&gt;&lt;br&gt;&lt;/div&gt;&lt;div&gt;&lt;br&gt;&lt;/div&gt;" style="rounded=1;whiteSpace=wrap;html=1;absoluteArcSize=1;arcSize=14;strokeWidth=2;" vertex="1" parent="7NN_S3zfGiUw_4aNoLyz-1">
          <mxGeometry x="660" y="570" width="145" height="190" as="geometry" />
        </mxCell>
        <mxCell id="fGSIY8M6xkT4DSkKSk-A-26" value="" style="verticalLabelPosition=bottom;verticalAlign=top;html=1;shape=card;whiteSpace=wrap;size=20;arcSize=12;" vertex="1" parent="7NN_S3zfGiUw_4aNoLyz-1">
          <mxGeometry x="682.5" y="690" width="100" height="60" as="geometry" />
        </mxCell>
        <mxCell id="fGSIY8M6xkT4DSkKSk-A-27" value="On collision" style="text;html=1;strokeColor=none;fillColor=none;align=center;verticalAlign=middle;whiteSpace=wrap;rounded=0;" vertex="1" parent="7NN_S3zfGiUw_4aNoLyz-1">
          <mxGeometry x="712.5" y="710" width="40" height="20" as="geometry" />
        </mxCell>
        <mxCell id="fGSIY8M6xkT4DSkKSk-A-30" style="edgeStyle=orthogonalEdgeStyle;rounded=0;orthogonalLoop=1;jettySize=auto;html=1;exitX=1;exitY=0.5;exitDx=0;exitDy=0;entryX=0;entryY=0;entryDx=60;entryDy=0;entryPerimeter=0;" edge="1" parent="7NN_S3zfGiUw_4aNoLyz-1" source="fGSIY8M6xkT4DSkKSk-A-7" target="fGSIY8M6xkT4DSkKSk-A-26">
          <mxGeometry relative="1" as="geometry" />
        </mxCell>
      </root>
    </mxGraphModel>
  </diagram>
</mxfile>
